<svg version="1.1" xmlns="http://www.w3.org/2000/svg" viewBox="0 0 1082.7146463028967 643.2685169498889" width="1082.7146463028967" height="643.2685169498889">
  <!-- svg-source:excalidraw -->
  
  <defs>
    <style class="style-fonts">
      @font-face {
        font-family: "Virgil";
        src: url("https://excalidraw.com/Virgil.woff2");
      }
      @font-face {
        font-family: "Cascadia";
        src: url("https://excalidraw.com/Cascadia.woff2");
      }
    </style>
  </defs>
  <rect x="0" y="0" width="1082.7146463028967" height="643.2685169498889" fill="#ffffff"></rect><g stroke-linecap="round" transform="translate(319.71464630289654 64.2685169498888) rotate(0 376.5 284.5)"><path d="M57.07 133.09 C57.07 133.09, 57.07 133.09, 57.07 133.09 M57.07 133.09 C57.07 133.09, 57.07 133.09, 57.07 133.09 M41.93 156.48 C57.23 139.39, 67.98 126.43, 86.47 105.3 M42.17 155.1 C55.34 140.21, 70.43 123.49, 87.55 104.52 M30.09 178.39 C58.42 145.17, 89.1 111.79, 108.25 84.78 M29.24 177.87 C45.29 159.81, 61.87 141.23, 107.53 86.41 M25.27 190.55 C48.45 162.56, 69.53 136.12, 117.5 78.63 M24.59 189.44 C60.32 148.81, 94.91 109.19, 118.29 80.16 M21.92 197.45 C51.98 163.85, 80.14 133.67, 131.45 72.52 M21.06 197.93 C64.44 148.5, 106.68 99.79, 131.81 72.02 M19.05 208.37 C60.87 158.73, 106.05 107.47, 143.31 66.11 M18.33 208.05 C45.72 176.54, 73.61 143.19, 141.56 65.77 M12.59 219.66 C52.21 175.47, 92.1 131.96, 153.5 58.26 M13.86 219.59 C70.32 155.49, 126.16 91.73, 152.71 59.8 M11.13 228.92 C67.92 163.29, 125.18 99.54, 166.66 47.37 M10.46 229.57 C48.07 185.94, 83.88 144.79, 167.29 48.53 M7.9 238.28 C62.34 179.22, 116.02 115.62, 176.75 45.26 M8.53 238.45 C48.83 192.06, 88.49 144.55, 175.94 45.46 M5.51 246.14 C56.43 189.34, 102 135.88, 182.81 40.64 M5.45 246.69 C67.6 175.72, 127.16 105.91, 184.71 42.36 M4.6 253.09 C54.38 197.09, 102.84 141.09, 190.73 37.55 M6.6 252.68 C54.23 199.5, 99.94 145.52, 191.71 38.76 M6.45 257.85 C74.25 182.7, 141.91 100.46, 199.75 34.02 M5.01 259.82 C66.24 190.36, 126.63 122.78, 199.88 34.99 M6.77 264.77 C69.25 190.7, 135.96 114.05, 209.16 32.83 M4.81 265.86 C54.35 207.54, 104.65 148.54, 208.45 32.18 M3.89 271.64 C76.6 187.19, 149.09 106.15, 218.42 28.21 M5.3 272.06 C59.89 209.42, 114.37 146.55, 216.8 27.96 M3.8 277.31 C68.14 204.55, 131.08 133.29, 223.85 25.32 M4.96 278.61 C77.83 191.83, 152.81 105.85, 224.5 25.88 M3.48 285.41 C55.52 225.75, 106.04 168.81, 232.19 21.3 M4.8 284.88 C79.82 197.3, 155.12 110.02, 233.07 22.51 M5.54 291.36 C72.23 211.63, 140.98 130.31, 237.64 22.4 M5.44 290.05 C79.27 204.45, 154.71 119.11, 238.77 22.09 M5.19 297.49 C61.91 229.04, 120.43 162.51, 244.11 21.94 M5.2 297.36 C63.87 230.91, 121.03 164.11, 244.4 20.88 M2.56 306.46 C64.8 232.9, 129.4 161.23, 252.62 18.24 M2.71 305.61 C73.54 225.2, 144.03 144.25, 251.29 18.62 M4.07 310.11 C84.18 220.2, 160.6 130.11, 258.54 18.06 M3.94 310.42 C77.04 226.14, 152.73 139.28, 257.97 17.5 M5.11 315.1 C63.07 246.02, 121.15 179.04, 264.71 16.95 M4.14 315.4 C57.31 255.4, 110.04 195.19, 264.25 16.01 M6.69 320.88 C108.14 200.2, 210.41 80.33, 272.15 14.84 M6.02 319.88 C109.54 199.59, 213.83 78.73, 270.95 14.78 M7.64 324.88 C71.51 254.44, 132.35 183.84, 278.37 14.44 M6.67 325 C102.2 217.23, 196.88 107.15, 277.23 13.16 M7 330.14 C95.78 232.94, 180.72 132.55, 283.67 11.29 M7.23 330.33 C70.82 257.26, 134.05 183.29, 283.93 12.57 M8.27 335.23 C78.07 253.5, 146.48 173.48, 291.25 9.99 M8.75 335.12 C90.36 239.55, 171.97 145.76, 291.08 10.04 M10.77 339.77 C114.61 221.13, 218.03 100.69, 296.84 10.17 M9.63 339.39 C90.97 245.54, 172.02 152.36, 297.51 9.06 M10.29 345.25 C72.66 272.07, 137.16 199.44, 303.21 7.7 M11.35 344.83 C90.62 253.25, 169.54 162.32, 303.19 7.73 M11.06 349.93 C98.2 252.31, 182.63 155.88, 311.32 4.18 M11.82 349.85 C77.82 271.92, 145.08 194.55, 312.02 4.67 M13.49 353.86 C84.49 269.45, 158.88 185.03, 316.56 4.8 M12.78 354.7 C83.33 272.76, 153.76 191.09, 317.52 4.16 M14.86 359.48 C98.41 259.1, 185.51 160.74, 322.51 3.85 M14.3 359.4 C111.9 247.63, 209 136.51, 322.93 4.19 M15.6 364.35 C134.42 227.32, 252.79 92.57, 329.27 4.19 M16.08 363.1 C80.14 286.98, 145.87 211.09, 328.88 3.12 M17.08 368.21 C86.25 290.28, 152.54 213.55, 334.5 2.41 M17.74 368.06 C83.85 292.91, 149.11 217.97, 334.64 3.02 M19.03 370.56 C100.25 279.6, 179.09 189.5, 340.47 2.03 M19.94 370.61 C124.26 250.08, 229.08 129.58, 340.41 2.59 M21.53 375.16 C89.42 297.66, 156.86 219.9, 345.4 2.02 M21.62 375.32 C134.74 245.73, 247.44 116.02, 345.88 2.47 M24.62 378.8 C96.06 296.23, 167.53 212.32, 351.97 1.29 M24.04 378.61 C154.4 228.7, 283.63 79.63, 351.55 1.8 M24.92 383.26 C109.73 287.59, 192.95 192.13, 357.49 0.98 M25.23 382.44 C146.96 243.97, 268.41 104, 356.59 1.62 M28.12 387.41 C109.03 292.75, 190.08 199.11, 362.12 1.91 M27.26 386.52 C135.43 263.69, 242.87 140.3, 362.46 0.79 M29.51 390.25 C157.19 242.53, 285.6 95.42, 368.86 0.6 M29.92 389.79 C130.2 277.8, 228.98 164.02, 368.49 0.83 M31.27 393.91 C101.14 314.24, 169.89 234.02, 373.33 0.37 M31.48 394.33 C131.07 277.5, 232.67 160.93, 373.21 1.12 M34.28 397.55 C135.28 281.01, 237.17 164.55, 379.29 1.04 M33.69 397.71 C150.71 262.16, 267.79 128.68, 378.9 0.71 M36.16 402.51 C162.08 256.7, 288.43 109.33, 385.11 1 M35.27 402.22 C110.42 317.32, 183.59 233.07, 384.1 0.45 M38.13 405.47 C165.26 259.04, 289.98 114.17, 389.66 -0.19 M37.56 404.91 C148.13 280.95, 257.3 155.8, 389.73 0.01 M39.85 409.97 C159.1 270.49, 279.07 132.33, 395.86 0.38 M39.67 409.18 C123.93 312.03, 208 214.62, 395.04 0.2 M41.48 413.19 C180.59 253.27, 318.84 93.51, 399.88 1.11 M41.63 412.46 C116.43 327.84, 189.24 244.29, 399.86 0.78 M43.32 417.5 C152 293.15, 259.35 168.89, 404.58 1.23 M43.58 416.98 C131.25 316.75, 219.07 215.81, 404.83 1.83 M46.27 420.38 C143.3 309.84, 237.96 199.85, 410.02 2.58 M45.79 420.61 C121.57 333.84, 198.11 246.63, 409.42 2.44 M49.59 422.9 C186.75 263.28, 325.19 104.9, 414.41 2.11 M49.05 423.01 C189.33 261.26, 331.18 98.06, 414.75 2.1 M50.9 425.66 C173.16 289.38, 293.26 150.62, 419.93 2.38 M51.1 426.44 C162.39 299.12, 273.36 171.06, 419.43 3.22 M54.99 428.23 C154.19 313.15, 255.76 196.11, 423.53 4.25 M54.12 428.86 C172.22 294.08, 289.65 159.62, 423.41 3.95 M57.44 432.74 C194.44 273.87, 334.37 114.79, 429.15 4.57 M56.65 432.42 C148.99 324.22, 241.41 217.1, 428.55 4.71 M59.47 435.36 C147.56 333.34, 237.68 230.4, 434.27 4.71 M60.01 434.99 C200.17 276.24, 339.11 116.95, 433.5 4.83 M62.81 437.92 C161.21 325.62, 259.02 212.45, 438.32 5.81 M61.84 437.87 C143.15 346.17, 223.32 253.03, 438.41 5.82 M65.33 441 C171.17 317.72, 277.19 195.55, 443.08 5.67 M64.94 440.58 C207.72 277.3, 351.15 112.19, 443.32 6 M67.08 444.35 C183.92 311.79, 299.19 179.23, 447.21 7.25 M67.56 444.49 C197.8 294.58, 328.34 144.43, 447.72 6.6 M70.77 446.35 C212.66 282.71, 356.23 118.14, 453.08 7.51 M70.62 446.82 C169.36 332.46, 268.66 218.51, 452.17 7.99 M73.4 450.86 C180.98 326.11, 289.3 202.13, 457.55 8.76 M72.88 449.92 C217.59 283.55, 361.61 117.39, 457.41 8.15 M76.32 452.28 C171.5 342.61, 268.1 230.77, 462.52 7.88 M75.74 452.83 C162.48 351.21, 250.14 250.73, 462.39 8.11 M78.47 456.77 C169.44 354.67, 257.81 252.02, 468 8.49 M78.35 456.57 C172.65 345.09, 268.66 234.36, 467.31 8.9 M81.65 459.33 C236.86 281.32, 390.53 103.54, 471.11 11.89 M81.66 458.9 C228.02 290.85, 374.76 122.08, 470.49 11.42 M83.72 461.85 C178.22 354.47, 273.43 246.9, 474.97 12.73 M83.54 462.01 C189.22 339.48, 296.16 216.75, 474.47 12.13 M87.14 464.53 C191.88 345.74, 295.81 227.56, 478.9 14.26 M86.78 464.89 C208.42 327.42, 327.72 189.65, 478.85 13.66 M88.9 467.97 C194.69 345, 301.9 220.56, 482.8 14.34 M88.66 468.59 C234.07 298.63, 380.22 130.45, 483.42 14.78 M92.95 470.23 C197.16 351.5, 300.93 231.6, 487.43 15.61 M92.79 470.26 C209.86 336.24, 326.07 202.35, 488.01 15.95 M94.98 472.75 C228.46 321.48, 359.77 169.96, 491.32 16.71 M95.88 473.08 C190.05 364.1, 285.02 255.16, 492.06 16.98 M98.67 475.13 C242.13 310.67, 385.7 146.86, 495.58 17.82 M98.69 475.54 C223.77 332.17, 349.31 187.77, 496.61 17.8 M101.21 478.06 C221.32 341.56, 341.86 203.8, 500.78 19.78 M101.5 477.62 C253.38 306.5, 403.2 134.13, 500.65 19.33 M105.91 479.35 C216.91 351.48, 331.12 220.39, 505.38 20.08 M105.04 480.13 C199.85 372.72, 292.79 266.08, 504.71 20.28 M108.4 482.49 C231.85 340.51, 354.45 200.04, 508.98 21.58 M108.17 482.12 C211.72 362.6, 316.38 241.98, 509.67 21.18 M111.84 484.9 C241.71 337.82, 370.52 188.72, 513.98 22.07 M111.47 485.23 C193.63 393.73, 274.96 300.2, 513.84 22.82 M115.36 487.33 C250.28 328.97, 387.78 172.76, 517.62 23 M114.79 487.12 C265.28 314.8, 415.31 142.89, 518.25 23.85 M118.58 488.87 C247.28 342.51, 375.42 194.58, 521.65 25.5 M118.08 489.41 C225.61 366.12, 333 242.54, 522.14 24.83 M120.8 492.79 C221.49 375.59, 324.08 257.23, 525.94 26.22 M120.9 492.33 C271.18 319.28, 421.85 146.16, 526.57 25.83 M124.77 494.26 C237.69 363.87, 350.86 234.74, 530.18 26.18 M124.17 494.6 C272.99 323.5, 420.17 153.73, 530.79 27.27 M128.52 497.25 C271.37 330.64, 417.47 162.89, 535.49 28.28 M127.85 496.74 C257.11 348.39, 385.92 199.58, 535.02 28.35 M130.76 499.08 C283.39 324.47, 434.84 150.81, 539.04 29.17 M131.11 499.29 C260.36 351.49, 389.68 202.43, 538.56 30.21 M133.25 502.62 C224.42 396.05, 316.74 291.81, 543.76 30.69 M134.2 502.34 C239.57 382.46, 344.2 262.08, 544.25 30.62 M137.29 503.33 C269.87 353.83, 399.72 202.03, 548 32.9 M137.72 503.79 C238.44 387.09, 338.9 271.88, 547.63 32.24 M140.23 506.65 C253.77 374.21, 366.03 244.12, 550.86 34.58 M140.98 506.45 C230.85 402.05, 322.65 296.89, 551.43 33.71 M144.22 509.85 C230.58 410.74, 314.99 313.89, 555.7 34.52 M143.9 508.76 C291.32 339.93, 437.84 171.52, 555.77 34.9 M148.55 510.66 C233.57 411.55, 321 313.26, 559.27 36.94 M147.72 510.28 C251.28 391.82, 353.16 274.59, 559.64 36.89 M152.19 512.59 C264.1 381.72, 377.33 251.62, 563.66 38.13 M151.42 512.28 C295.43 348.56, 437.8 184.68, 562.74 39.02 M154.93 514.02 C306.71 338.35, 459.1 163.63, 567.35 41.43 M155.57 514.14 C296.9 348.8, 440.68 183.85, 566.52 40.36 M158.95 516.01 C295.25 359.5, 430.54 204.09, 570.74 42.78 M158.67 515.59 C244.01 419.81, 328.44 322.42, 570.35 43 M163.11 517.42 C311.09 344.37, 460.59 173.11, 574.55 44.32 M162.94 517.55 C300.35 358.74, 437.32 201.27, 574.32 44.83 M166.24 518.9 C302.26 361.43, 440.37 204.84, 578.3 47.11 M165.94 519.76 C253.05 420, 340.89 318.78, 578.02 46 M170.34 522.02 C277.78 399.22, 383.7 276.61, 581.96 48.7 M169.7 521.61 C254.91 424.39, 338.45 328.4, 581.68 48.11 M174.26 523.63 C256.55 425.68, 340.55 329.6, 585.05 49.51 M173.92 522.95 C313.28 362.99, 453.81 201.61, 585.64 49.54 M176.97 524.64 C334.04 346.57, 488.97 165.74, 588.88 51.79 M177.14 524.95 C322.24 359.88, 465.98 195.08, 589.7 50.82 M181.42 526.74 C273.4 418.16, 366.37 311.57, 592.5 52.69 M181.78 526.13 C281.78 411.9, 382.84 296.67, 593.4 53.4 M185.57 528.24 C315.29 379.65, 443.46 232.42, 596.56 54.35 M185.46 527.83 C329.94 363.11, 473.47 198.54, 597 54.62 M189.64 529.87 C286.16 418.99, 381.92 308.15, 600.81 57.58 M189.36 529.7 C302.67 398.13, 417.31 266.01, 600.08 56.65 M193.45 532.12 C316.95 390.31, 441.33 246.28, 604.14 59.35 M192.71 531.94 C346.27 356.23, 500.71 178.81, 604.36 58.46 M195.59 533.69 C292.86 420.78, 389.95 310.24, 608.5 59.19 M196.3 533.78 C316.2 399.34, 433.63 264.23, 608.29 59.92 M199.82 535.38 C305.66 416.15, 409.31 297.03, 610.83 62.17 M200.37 535.87 C361.11 352.33, 522.41 167.42, 611.36 62.4 M203.96 537.69 C358.98 358.18, 516.71 177.01, 613.89 64.78 M203.44 537.16 C366.18 350.07, 529.34 162.58, 614.8 65.18 M207.93 539.95 C342.38 382.79, 479.1 226.03, 617.51 66.65 M207.48 539.7 C351.37 374.36, 494.5 209.76, 617.97 66.83 M210.59 541.06 C375.64 355.85, 538.21 168.53, 620.53 69.62 M211.05 541.44 C306.12 431.26, 402.8 320.39, 621.47 69.93 M215.25 542.69 C362.09 375.18, 507.5 208.82, 624.83 72.33 M215.18 542.74 C375.01 357.4, 535.04 172.88, 624.24 72.55 M219.75 542.72 C365.85 376.06, 511.4 209.81, 628.58 73.26 M219.34 543.84 C346.49 396.86, 475.58 248.2, 627.53 73.78 M223.3 544.89 C310.08 446.21, 396.26 347.11, 630.7 76.93 M223.8 544.22 C328.37 423.2, 432.45 302.82, 630.97 76.79 M229.02 545.91 C346.74 406.51, 467.6 268.63, 633.32 78.91 M228.54 545.79 C326.17 434.36, 423.67 322.4, 633.62 79.53 M232.86 547.45 C328.87 435.36, 425.35 324.99, 638.17 81.69 M232.84 546.48 C340.96 425.24, 447.79 302.51, 637.24 81.03 M236.4 547.23 C322.37 448.8, 409.25 349.72, 639.94 83.21 M237.24 547.54 C361.93 406.09, 485.1 264.48, 640.61 83.67 M242.12 549.41 C335.24 438.62, 430.75 328.09, 643.01 85.94 M241.5 548.67 C372.89 396.67, 506.21 243.81, 643.95 86.3 M245.44 550.94 C352.76 427.89, 458.93 305.89, 646.78 88.7 M245.84 550.53 C364.46 414.01, 483.9 276.25, 647.23 88.11 M250.11 552.63 C357.43 427.77, 466.85 302.87, 650.1 91.23 M249.76 552.25 C395.34 383.44, 541.35 215.96, 650.23 90.94 M253.33 553.74 C400.29 384.05, 545.21 217.81, 653.71 93.63 M253.54 553.3 C368.51 420.35, 484.95 286.06, 653.64 93.14 M257.77 554 C362.37 435.56, 466.84 317.33, 656.67 94.62 M257.81 553.99 C362.26 437.02, 464.1 319.08, 656.66 95.1 M263.16 556.16 C417.61 378.95, 570.69 202.98, 659.29 97.66 M262.56 555.71 C364.04 439.96, 465.48 323.58, 660.22 98.33 M267.19 556.31 C417.57 382.6, 567.66 210.15, 662.27 100.86 M266.89 556.88 C386.37 419.59, 505.03 282.7, 663.27 100.92 M270.4 557.43 C414.03 389.95, 559.2 223.58, 665.77 103.91 M270.96 557.81 C367.78 446.29, 464.23 335.32, 666.15 103.03 M274.64 558.91 C380.45 435.7, 487.3 313.67, 668.49 106.48 M275.56 559.11 C420.74 392.76, 566.83 224.71, 669.22 106.15 M279.89 560.53 C395.82 425.73, 511.64 292.18, 671.86 109.71 M280.11 560.1 C359.39 465.88, 440.81 372.67, 671.77 109.07 M284.32 561.61 C375.12 455.11, 466.1 350.74, 674.74 112.37 M283.81 561.25 C416.34 410.06, 546.86 259.34, 674.22 112.06 M289.82 560.96 C416.33 412.88, 545.29 265.46, 676.83 115.28 M289.07 561.06 C439.11 388.69, 588.38 216.38, 677.1 115.05 M293.66 561.57 C378.68 461.96, 462.85 364.78, 679.25 117.61 M294.36 561.52 C393.44 447.22, 491.77 334.09, 679.51 117.94 M298.5 562.63 C444.02 393.61, 590.51 225.59, 682.44 120.48 M298.89 561.89 C415.02 428.51, 532.3 293.84, 682.17 121.12 M303.14 563.43 C400.58 450.92, 496.41 341.49, 685.14 123.28 M303.32 563.45 C446.28 397.37, 589.78 231.25, 685.12 124.21 M308.41 564.26 C427.44 426.62, 548.26 289.15, 687.15 127.24 M307.93 563.28 C455.69 392.66, 603.28 222.6, 687.61 127.37 M313.25 563.7 C389.46 477.08, 466.69 388.44, 689.84 130.16 M313.08 563.6 C445.11 414.07, 575.03 263.91, 690.52 130.04 M318.35 565.14 C456.9 405.17, 596.68 244.96, 692.55 133.18 M317.56 564.79 C447.8 415.69, 577.71 266.68, 693.11 133.06 M323.37 565.61 C398.94 476.75, 477.3 387.16, 696.31 135.5 M322.48 565.48 C468.25 400.46, 613.49 233.51, 696.22 135.79 M327.83 565.89 C450.21 423.63, 573.36 282.6, 698.58 139.57 M327.79 565.56 C467.06 405.95, 606.51 245.49, 698.2 139.02 M331.57 567.39 C429.1 453.17, 527.68 341.72, 701.83 142.61 M332.15 567.11 C451.95 426.49, 573.02 287.78, 701.36 142.15 M336.73 567.43 C466.23 420.11, 593.68 273.33, 703.48 144.98 M336.91 567.37 C473.53 410.07, 610.06 252.25, 703.84 145.24 M342.27 567.73 C424.64 473.55, 508.23 378.36, 706.02 148.1 M341.75 567.28 C477.94 409.39, 614.51 252.28, 706.91 147.79 M346.67 567.35 C469.42 427.4, 590.65 287.91, 709.28 150.89 M346.86 567.71 C464.21 435.61, 580.06 301.7, 709.88 150.9 M351.43 569.69 C427.26 483.01, 500.43 397.41, 712.41 154.64 M351.21 569.38 C472.19 428.71, 592.92 290.1, 711.69 154.15 M355.77 569.12 C483.55 425.19, 609.61 278.97, 713.7 157.46 M356.38 569.08 C458.44 450.46, 561.34 331.5, 714.18 157.38 M360.74 568.96 C493.89 416.34, 626.33 264.05, 715.95 161.27 M361.34 569.78 C503.54 406.78, 644.44 243.56, 715.85 161.32 M364.19 571.19 C447.82 475.42, 530.91 381.11, 717.97 166.29 M364.99 571.21 C449.41 474.61, 534.89 376.71, 718.03 165.37 M370.83 571.14 C497.94 423.67, 627.22 275.22, 719.73 168.52 M370.15 571 C494.83 428.34, 617.46 286.57, 719.98 169.15 M376.1 571.12 C502.36 424.9, 627.81 279.3, 722.01 172.36 M376.51 570.45 C459.19 477.02, 540.52 383.4, 722.09 173.22 M381.37 569.76 C477.07 461.37, 570.77 352.03, 724.01 177.23 M381.82 570.22 C508.16 425.16, 634.69 279.71, 723.77 176.91 M387.27 569.72 C486.87 455.15, 585.89 340.82, 726.23 180.57 M387.49 570.27 C459.61 485.57, 532.77 402.1, 725.87 180.69 M393.75 568.92 C477.42 473.62, 562.05 377.89, 726.94 184.07 M393.38 569.84 C465.75 486.21, 538.29 402.33, 727.49 184.38 M398.46 569.25 C504.53 446.41, 610.71 325.81, 729.37 188.28 M398.95 569.1 C470.01 488.67, 541.03 407.06, 729.49 189.1 M404.87 569.34 C502.61 455.07, 601.29 340.73, 731.81 192.44 M404.47 569.18 C485.04 476.56, 565.54 383.29, 732.1 192.34 M409.49 568.48 C512.23 451.1, 612.97 334.74, 733.67 195.85 M409.74 568.14 C527.04 434.61, 643.45 300.67, 733.29 196.67 M416.4 567.36 C511.66 459.1, 607.74 349.74, 734.63 200.61 M415.34 568.32 C484.45 491.93, 551.45 415.52, 735.59 200.36 M420.98 567.38 C517.5 458.05, 611.83 348.08, 737.72 203.19 M421.37 567.34 C507.44 468.9, 592.73 370.47, 737.9 203.81 M426.53 568.01 C543.46 434.02, 658.3 300.47, 738.33 208.16 M426.95 567.26 C502.18 482.2, 577.81 396.28, 738.2 208.43 M432.02 568.15 C512.47 475.38, 593.89 381.9, 741.05 213.17 M431.66 567.82 C510.47 478.78, 588.21 389.56, 740.67 212.48 M437.96 567.52 C530.88 459.03, 625.57 352.5, 742.07 217.7 M437.78 567.65 C517.99 472.03, 599.31 378.81, 740.91 217.7 M442.56 566.79 C544.61 450.26, 646.54 333.26, 743.32 223.44 M443.18 567.09 C532.6 462.58, 622.67 358.69, 742.33 222.39 M448.83 566.48 C554.12 444.9, 660.22 323.74, 743.28 226.38 M449.51 565.35 C511.32 495.1, 572.63 424.19, 743.7 226.39 M457.18 564.38 C525.16 484.15, 596.33 405.31, 744.57 231.17 M456.11 563.85 C544.99 462.77, 633.97 359.73, 745.08 231.6 M462.55 562.87 C529.73 488.4, 594.52 413.33, 746.51 236.15 M462.62 563.13 C569.18 439.01, 675.23 316.11, 746.44 236.49 M469.77 562.45 C530.27 490.3, 592.46 418.07, 748.14 241.05 M468.83 561.88 C538.57 480.3, 609.57 398.9, 747.44 241.01 M475.46 558.5 C553.45 469.2, 630.48 380.5, 749.63 246.5 M476.16 559.37 C547.54 476.18, 620.01 392.84, 749.22 245.29 M482.8 559.45 C567.03 463.08, 650.25 367.07, 749.83 249.51 M482.01 558.88 C539.14 495.76, 595.06 430.94, 750.27 250.54 M488.43 557.46 C581.41 448.98, 675.42 341.33, 750.37 255.11 M488.54 557.78 C585 445.42, 682.09 334.09, 750.73 255.6 M495.78 555.59 C569.4 472.5, 644.18 386.46, 753.16 260.87 M495.72 555.16 C578.65 458.92, 663.89 362.5, 752.65 259.9 M502.13 553.45 C584.87 462.83, 663.92 369.25, 754.14 265.69 M502.09 554.39 C594.6 446.69, 686.9 341.82, 753.16 265.19 M509.37 552.94 C578.51 471.05, 650.38 392.52, 753.44 272.68 M508.09 552.74 C574.57 478.91, 640.02 403.17, 752.91 271.25 M517.62 549.18 C596.46 457.72, 675.33 368.28, 752.66 278.63 M517.26 547.68 C597.03 457.84, 674.6 369.3, 752.39 278.42 M527.09 545.82 C572.85 487.5, 621.8 433.44, 753.39 284.39 M526.51 544.34 C611.44 449.74, 694.77 354.89, 752.16 284.98 M533.73 541.19 C619.37 444.04, 705.95 345.69, 753.46 289.75 M533.26 541.5 C605.57 462.27, 675.38 380.29, 752.25 290.44 M542.71 537.75 C606.99 462.38, 674.55 385.88, 751.32 298.08 M541.89 538.32 C595.66 474.69, 650.64 411.11, 750.74 297.99 M549.93 535.8 C620.39 452.72, 692.66 371.54, 751.88 303.55 M549.92 534.67 C629.13 444.15, 708.74 352.68, 751.15 304.73 M557.86 531.75 C604.06 481.44, 648.92 430.77, 751.46 310.85 M557.22 533.15 C610.14 472.54, 663.94 411.93, 750.8 310.15 M566.31 529.08 C632.34 452.62, 698.56 376.9, 751.7 316.51 M566.1 529.61 C637.36 446.27, 710.75 362.47, 749.67 317.75 M574.23 526.77 C629.2 460.4, 687.91 394.31, 750.33 322.61 M574.94 526.53 C612 481.48, 649.93 437.67, 750.78 323.94 M581.91 524.07 C645.22 447.35, 710.57 374.7, 752.96 326.4 M582.32 523.34 C642.67 454.3, 702.64 386.62, 752.64 327.03 M587.99 522.13 C642.91 462, 695.78 399.37, 750.26 337.39 M587.8 522.72 C651.77 451.64, 714.23 380.1, 748.57 337.15 M600.6 513.3 C638 470.14, 674.48 429.22, 746.48 346.1 M600.72 513.47 C640.98 466.21, 684.35 417.49, 745.41 346.73 M613.25 507.25 C658.64 455.58, 702.16 403.09, 743.28 354.78 M613.39 506.37 C662.76 447.32, 714.04 388.16, 742.74 356.57 M623.26 499.5 C656.44 460.56, 689.96 421.03, 739.73 366.37 M625.41 498.78 C649.65 468.07, 675.16 438.16, 738.42 367.07 M639.12 490.29 C661.14 463.88, 684.8 437.95, 731.47 381.62 M638.35 489.09 C666.33 455.81, 695.53 422.49, 730.52 382.92 M647.84 484.31 C665 464.82, 680.05 446.91, 715.55 407.89 M647.76 484.67 C672.9 454.85, 696.92 428.2, 713.53 407.56 M675.98 455.29 C682.36 450.53, 686.53 444.72, 695.3 435.04 M677.02 456.67 C682.84 449.33, 689.49 441.6, 697.79 433.37" stroke="#fab005" stroke-width="0.5" fill="none"></path><path d="M467.92 9 C493.7 9.03, 519.47 20.54, 542.81 29.02 C566.15 37.49, 587.64 47.73, 607.98 59.87 C628.33 72, 647.89 86.49, 664.89 101.82 C681.88 117.15, 697.79 134.23, 709.95 151.84 C722.11 169.45, 730.7 188.66, 737.84 207.5 C744.98 226.34, 750.8 245.38, 752.79 264.86 C754.78 284.34, 753.62 304.72, 749.79 324.41 C745.97 344.09, 738.96 364.43, 729.84 382.97 C720.73 401.51, 709.07 419.19, 695.1 435.65 C681.14 452.12, 664.14 467.58, 646.07 481.75 C628 495.91, 608.12 509.64, 586.68 520.65 C565.24 531.65, 541.8 540.48, 517.41 547.77 C493.03 555.06, 466.22 560.77, 440.36 564.42 C414.51 568.06, 388.41 570.36, 362.3 569.65 C336.18 568.94, 309.11 565.08, 283.69 560.14 C258.26 555.19, 233.12 548.58, 209.76 539.97 C186.4 531.36, 164.01 520.81, 143.52 508.46 C123.03 496.12, 103.5 481.1, 86.81 465.92 C70.12 450.74, 55.52 434.65, 43.38 417.4 C31.23 400.15, 20.95 381.2, 13.93 362.42 C6.91 343.64, 3.01 324.46, 1.25 304.71 C-0.51 284.96, -0.21 263.49, 3.34 243.92 C6.9 224.34, 13.65 205.7, 22.58 187.27 C31.5 168.84, 42.81 150.26, 56.88 133.31 C70.95 116.36, 88.52 99.74, 106.97 85.59 C125.43 71.43, 145.96 59.24, 167.61 48.37 C189.27 37.5, 212.91 27.68, 236.89 20.36 C260.87 13.03, 285.96 7.92, 311.5 4.44 C337.03 0.95, 360.69 -1.82, 390.1 -0.56 C419.5 0.7, 469.05 7.94, 487.93 11.99 C506.81 16.04, 505.19 19.05, 503.39 23.72 M517.4 21.43 C542.95 24.2, 566.33 38.98, 587.79 49.96 C609.25 60.93, 627.92 73.33, 646.16 87.3 C664.4 101.27, 683.36 117.25, 697.23 133.76 C711.1 150.28, 720.52 168.05, 729.39 186.4 C738.27 204.75, 746.79 224.05, 750.49 243.89 C754.19 263.72, 753.88 285.47, 751.61 305.41 C749.34 325.36, 744.12 344.76, 736.86 363.56 C729.6 382.36, 720.12 401.07, 708.05 418.22 C695.98 435.37, 681.05 451.59, 664.42 466.45 C647.8 481.32, 628.75 494.96, 608.3 507.41 C587.85 519.87, 565.42 532.15, 541.71 541.19 C518 550.24, 491.23 557.32, 466.03 561.7 C440.84 566.08, 416.37 567.17, 390.53 567.49 C364.69 567.8, 336.71 566.78, 310.99 563.59 C285.28 560.39, 260.28 555.4, 236.25 548.3 C212.21 541.19, 188.44 532.23, 166.77 520.96 C145.1 509.7, 124.35 495.17, 106.25 480.71 C88.14 466.24, 72.13 450.59, 58.14 434.18 C44.16 417.78, 31.41 400.51, 22.34 382.28 C13.27 364.04, 7.47 344.31, 3.72 324.78 C-0.02 305.25, -2.12 284.91, -0.13 265.09 C1.87 245.28, 8.15 224.94, 15.72 205.88 C23.28 186.83, 32.99 167.92, 45.26 150.76 C57.53 133.59, 72.48 117.9, 89.32 102.92 C106.16 87.94, 125.86 73.18, 146.31 60.87 C166.77 48.56, 188.84 37.93, 212.05 29.06 C235.26 20.19, 260.41 12.47, 285.56 7.65 C310.71 2.83, 336.67 0.88, 362.95 0.14 C389.23 -0.6, 417.69 -0.17, 443.24 3.22 C468.8 6.6, 504.44 16.57, 516.27 20.43 C528.1 24.29, 516.58 21.78, 514.23 26.37" stroke="#000000" stroke-width="1" fill="none"></path></g><g stroke-linecap="round" transform="translate(21.058924896089252 118.3689702400871) rotate(0 27.81460987140798 25.60069298867583)"><path d="M34.19 0.97 C39.97 1.82, 46.93 5.62, 50.62 9.86 C54.31 14.11, 56.66 20.73, 56.32 26.44 C55.99 32.14, 52.96 40.12, 48.6 44.1 C44.23 48.08, 36.3 49.76, 30.12 50.32 C23.93 50.87, 16.39 50.38, 11.49 47.43 C6.6 44.48, 2.42 37.81, 0.75 32.61 C-0.92 27.42, -1 21.17, 1.48 16.26 C3.96 11.36, 9.06 5.47, 15.64 3.18 C22.21 0.9, 35.74 1.73, 40.95 2.57 C46.17 3.4, 47.14 7.59, 46.92 8.2 M27.09 0.55 C32.73 0.2, 42.57 1.67, 47.37 5.37 C52.16 9.07, 55.35 17.07, 55.86 22.75 C56.36 28.44, 53.81 35.02, 50.41 39.48 C47.01 43.95, 40.76 47.93, 35.45 49.55 C30.15 51.17, 23.95 51.1, 18.58 49.23 C13.22 47.35, 6.35 43.11, 3.27 38.29 C0.18 33.47, -1.13 25.87, 0.08 20.29 C1.29 14.72, 5.57 8.03, 10.5 4.85 C15.44 1.66, 26.48 1.67, 29.7 1.17 C32.93 0.66, 29.92 1.39, 29.85 1.82" stroke="#000000" stroke-width="2" fill="none"></path></g><g stroke-linecap="round"><g transform="translate(45.7087735925885 169.28657946844925) rotate(0 -1.2841661510978497 31.56203361544479)"><path d="M1.07 0.57 C0.55 10.81, -2.97 51.57, -3.64 61.87 M0.18 -0.17 C0.08 10.21, -0.73 52.63, -1.41 63.3" stroke="#000000" stroke-width="2" fill="none"></path></g></g><mask></mask><g stroke-linecap="round"><g transform="translate(43.22261397858131 232.9493456095659) rotate(0 11.890274735659887 19.04904517395076)"><path d="M0.57 -0.91 C4.56 5.18, 20.32 31.07, 24.37 37.6 M-0.58 1.22 C3.19 8.01, 19.17 33.18, 23.31 39.01" stroke="#000000" stroke-width="2" fill="none"></path></g></g><mask></mask><g stroke-linecap="round"><g transform="translate(41.967203170057815 231.65484728978544) rotate(0 -11.893124981096832 16.472308814854273)"><path d="M-0.91 -0.21 C-5.01 5.42, -19.87 28.72, -23.52 34.31 M0.81 -1.36 C-3.56 3.83, -20.57 26.4, -24.6 32.34" stroke="#000000" stroke-width="2" fill="none"></path></g></g><mask></mask><g stroke-linecap="round"><g transform="translate(11.774565839972297 204.55908457159018) rotate(0 15.50355047638135 -11.231538192110804)"><path d="M-0.21 -0.25 C5.16 -3.49, 27.45 -17.06, 32.78 -20.34 M-1.77 -1.43 C3.41 -4.95, 26.58 -18.82, 31.99 -22.21" stroke="#000000" stroke-width="2" fill="none"></path></g></g><mask></mask><g stroke-linecap="round"><g transform="translate(46.09467864653709 184.35526831643443) rotate(0 10.428113196947038 12.887428934015219)"><path d="M-0.25 0.29 C3.42 4.53, 17.48 21.09, 21.11 25.2 M1.82 -0.6 C5.45 3.8, 17.17 21.98, 20.41 26.37" stroke="#000000" stroke-width="2" fill="none"></path></g></g><mask></mask><g stroke-linecap="round" transform="translate(375.77272843682715 10) rotate(0 63.941917866069446 38.268516949888834)"><path d="M-1.16 1.51 C34.07 0.84, 73.02 -2.01, 126.43 -1.78 M-0.86 0.95 C45.29 0.76, 89.87 -0.46, 127.83 0.44 M129.78 -0.22 C126.71 20.81, 130.1 38.89, 128.63 77.98 M127.7 0.54 C128.04 16.71, 128.44 33.36, 127.65 76.62 M129.85 78.28 C97.7 79.12, 66.34 78.98, 1.77 76.86 M128.49 75.8 C99.44 75.8, 72.67 76.1, -0.05 75.76 M1.73 75.47 C-0.99 49.8, 0.02 22.61, 1.14 0.34 M-0.67 75.91 C-0.9 56.79, -1.35 35.38, 0.61 -0.29" stroke="#000000" stroke-width="1" fill="none"></path></g><g stroke-linecap="round"><g transform="translate(374.69713068593194 20.71653439224417) rotate(0 64.68603779185383 0.045558665963653766)"><path d="M-0.7 0.9 C20.57 0.96, 106.12 1.11, 127.87 0.8 M1.14 0.33 C22.74 0.01, 108.66 -0.83, 130.07 -0.9" stroke="#000000" stroke-width="1" fill="none"></path></g></g><mask></mask><g stroke-linecap="round" transform="translate(380.260763905782 14.27156980000882) rotate(0 2.5009765625 2.5009765625)"><path d="M5 2.5 C5 2.65, 4.99 2.79, 4.96 2.94 C4.94 3.08, 4.9 3.22, 4.85 3.36 C4.8 3.49, 4.74 3.63, 4.67 3.75 C4.59 3.88, 4.51 4, 4.42 4.11 C4.32 4.22, 4.22 4.32, 4.11 4.42 C4 4.51, 3.88 4.59, 3.75 4.67 C3.63 4.74, 3.49 4.8, 3.36 4.85 C3.22 4.9, 3.08 4.94, 2.94 4.96 C2.79 4.99, 2.65 5, 2.5 5 C2.36 5, 2.21 4.99, 2.07 4.96 C1.92 4.94, 1.78 4.9, 1.65 4.85 C1.51 4.8, 1.38 4.74, 1.25 4.67 C1.13 4.59, 1 4.51, 0.89 4.42 C0.78 4.32, 0.68 4.22, 0.59 4.11 C0.49 4, 0.41 3.88, 0.34 3.75 C0.26 3.63, 0.2 3.49, 0.15 3.36 C0.1 3.22, 0.06 3.08, 0.04 2.94 C0.01 2.79, 0 2.65, 0 2.5 C0 2.36, 0.01 2.21, 0.04 2.07 C0.06 1.92, 0.1 1.78, 0.15 1.65 C0.2 1.51, 0.26 1.38, 0.34 1.25 C0.41 1.13, 0.49 1, 0.59 0.89 C0.68 0.78, 0.78 0.68, 0.89 0.59 C1 0.49, 1.13 0.41, 1.25 0.34 C1.38 0.26, 1.51 0.2, 1.65 0.15 C1.78 0.1, 1.92 0.06, 2.07 0.04 C2.21 0.01, 2.36 0, 2.5 0 C2.65 0, 2.79 0.01, 2.94 0.04 C3.08 0.06, 3.22 0.1, 3.36 0.15 C3.49 0.2, 3.63 0.26, 3.75 0.34 C3.88 0.41, 4 0.49, 4.11 0.59 C4.22 0.68, 4.32 0.78, 4.42 0.89 C4.51 1, 4.59 1.13, 4.67 1.25 C4.74 1.38, 4.8 1.51, 4.85 1.65 C4.9 1.78, 4.94 1.92, 4.96 2.07 C4.99 2.21, 5 2.43, 5 2.5 C5.01 2.57, 5.01 2.43, 5 2.5" stroke="none" stroke-width="0" fill="#fa5252"></path><path d="M5 2.5 C5 2.65, 4.99 2.79, 4.96 2.94 C4.94 3.08, 4.9 3.22, 4.85 3.36 C4.8 3.49, 4.74 3.63, 4.67 3.75 C4.59 3.88, 4.51 4, 4.42 4.11 C4.32 4.22, 4.22 4.32, 4.11 4.42 C4 4.51, 3.88 4.59, 3.75 4.67 C3.63 4.74, 3.49 4.8, 3.36 4.85 C3.22 4.9, 3.08 4.94, 2.94 4.96 C2.79 4.99, 2.65 5, 2.5 5 C2.36 5, 2.21 4.99, 2.07 4.96 C1.92 4.94, 1.78 4.9, 1.65 4.85 C1.51 4.8, 1.38 4.74, 1.25 4.67 C1.13 4.59, 1 4.51, 0.89 4.42 C0.78 4.32, 0.68 4.22, 0.59 4.11 C0.49 4, 0.41 3.88, 0.34 3.75 C0.26 3.63, 0.2 3.49, 0.15 3.36 C0.1 3.22, 0.06 3.08, 0.04 2.94 C0.01 2.79, 0 2.65, 0 2.5 C0 2.36, 0.01 2.21, 0.04 2.07 C0.06 1.92, 0.1 1.78, 0.15 1.65 C0.2 1.51, 0.26 1.38, 0.34 1.25 C0.41 1.13, 0.49 1, 0.59 0.89 C0.68 0.78, 0.78 0.68, 0.89 0.59 C1 0.49, 1.13 0.41, 1.25 0.34 C1.38 0.26, 1.51 0.2, 1.65 0.15 C1.78 0.1, 1.92 0.06, 2.07 0.04 C2.21 0.01, 2.36 0, 2.5 0 C2.65 0, 2.79 0.01, 2.94 0.04 C3.08 0.06, 3.22 0.1, 3.36 0.15 C3.49 0.2, 3.63 0.26, 3.75 0.34 C3.88 0.41, 4 0.49, 4.11 0.59 C4.22 0.68, 4.32 0.78, 4.42 0.89 C4.51 1, 4.59 1.13, 4.67 1.25 C4.74 1.38, 4.8 1.51, 4.85 1.65 C4.9 1.78, 4.94 1.92, 4.96 2.07 C4.99 2.21, 5 2.43, 5 2.5 C5.01 2.57, 5.01 2.43, 5 2.5" stroke="#000000" stroke-width="1" fill="none"></path></g><g stroke-linecap="round" transform="translate(390.523459218282 14.27156980000882) rotate(0 2.5009765625 2.5009765625)"><path d="M5 2.5 C5 2.65, 4.99 2.79, 4.96 2.94 C4.94 3.08, 4.9 3.22, 4.85 3.36 C4.8 3.49, 4.74 3.63, 4.67 3.75 C4.59 3.88, 4.51 4, 4.42 4.11 C4.32 4.22, 4.22 4.32, 4.11 4.42 C4 4.51, 3.88 4.59, 3.75 4.67 C3.63 4.74, 3.49 4.8, 3.36 4.85 C3.22 4.9, 3.08 4.94, 2.94 4.96 C2.79 4.99, 2.65 5, 2.5 5 C2.36 5, 2.21 4.99, 2.07 4.96 C1.92 4.94, 1.78 4.9, 1.65 4.85 C1.51 4.8, 1.38 4.74, 1.25 4.67 C1.13 4.59, 1 4.51, 0.89 4.42 C0.78 4.32, 0.68 4.22, 0.59 4.11 C0.49 4, 0.41 3.88, 0.34 3.75 C0.26 3.63, 0.2 3.49, 0.15 3.36 C0.1 3.22, 0.06 3.08, 0.04 2.94 C0.01 2.79, 0 2.65, 0 2.5 C0 2.36, 0.01 2.21, 0.04 2.07 C0.06 1.92, 0.1 1.78, 0.15 1.65 C0.2 1.51, 0.26 1.38, 0.34 1.25 C0.41 1.13, 0.49 1, 0.59 0.89 C0.68 0.78, 0.78 0.68, 0.89 0.59 C1 0.49, 1.13 0.41, 1.25 0.34 C1.38 0.26, 1.51 0.2, 1.65 0.15 C1.78 0.1, 1.92 0.06, 2.07 0.04 C2.21 0.01, 2.36 0, 2.5 0 C2.65 0, 2.79 0.01, 2.94 0.04 C3.08 0.06, 3.22 0.1, 3.36 0.15 C3.49 0.2, 3.63 0.26, 3.75 0.34 C3.88 0.41, 4 0.49, 4.11 0.59 C4.22 0.68, 4.32 0.78, 4.42 0.89 C4.51 1, 4.59 1.13, 4.67 1.25 C4.74 1.38, 4.8 1.51, 4.85 1.65 C4.9 1.78, 4.94 1.92, 4.96 2.07 C4.99 2.21, 5 2.43, 5 2.5 C5.01 2.57, 5.01 2.43, 5 2.5" stroke="none" stroke-width="0" fill="#fab005"></path><path d="M5 2.5 C5 2.65, 4.99 2.79, 4.96 2.94 C4.94 3.08, 4.9 3.22, 4.85 3.36 C4.8 3.49, 4.74 3.63, 4.67 3.75 C4.59 3.88, 4.51 4, 4.42 4.11 C4.32 4.22, 4.22 4.32, 4.11 4.42 C4 4.51, 3.88 4.59, 3.75 4.67 C3.63 4.74, 3.49 4.8, 3.36 4.85 C3.22 4.9, 3.08 4.94, 2.94 4.96 C2.79 4.99, 2.65 5, 2.5 5 C2.36 5, 2.21 4.99, 2.07 4.96 C1.92 4.94, 1.78 4.9, 1.65 4.85 C1.51 4.8, 1.38 4.74, 1.25 4.67 C1.13 4.59, 1 4.51, 0.89 4.42 C0.78 4.32, 0.68 4.22, 0.59 4.11 C0.49 4, 0.41 3.88, 0.34 3.75 C0.26 3.63, 0.2 3.49, 0.15 3.36 C0.1 3.22, 0.06 3.08, 0.04 2.94 C0.01 2.79, 0 2.65, 0 2.5 C0 2.36, 0.01 2.21, 0.04 2.07 C0.06 1.92, 0.1 1.78, 0.15 1.65 C0.2 1.51, 0.26 1.38, 0.34 1.25 C0.41 1.13, 0.49 1, 0.59 0.89 C0.68 0.78, 0.78 0.68, 0.89 0.59 C1 0.49, 1.13 0.41, 1.25 0.34 C1.38 0.26, 1.51 0.2, 1.65 0.15 C1.78 0.1, 1.92 0.06, 2.07 0.04 C2.21 0.01, 2.36 0, 2.5 0 C2.65 0, 2.79 0.01, 2.94 0.04 C3.08 0.06, 3.22 0.1, 3.36 0.15 C3.49 0.2, 3.63 0.26, 3.75 0.34 C3.88 0.41, 4 0.49, 4.11 0.59 C4.22 0.68, 4.32 0.78, 4.42 0.89 C4.51 1, 4.59 1.13, 4.67 1.25 C4.74 1.38, 4.8 1.51, 4.85 1.65 C4.9 1.78, 4.94 1.92, 4.96 2.07 C4.99 2.21, 5 2.43, 5 2.5 C5.01 2.57, 5.01 2.43, 5 2.5" stroke="#000000" stroke-width="1" fill="none"></path></g><g stroke-linecap="round" transform="translate(401.2368756846282 14.722290953855008) rotate(0 2.5009765625 2.5009765625)"><path d="M5 2.5 C5 2.65, 4.99 2.79, 4.96 2.94 C4.94 3.08, 4.9 3.22, 4.85 3.36 C4.8 3.49, 4.74 3.63, 4.67 3.75 C4.59 3.88, 4.51 4, 4.42 4.11 C4.32 4.22, 4.22 4.32, 4.11 4.42 C4 4.51, 3.88 4.59, 3.75 4.67 C3.63 4.74, 3.49 4.8, 3.36 4.85 C3.22 4.9, 3.08 4.94, 2.94 4.96 C2.79 4.99, 2.65 5, 2.5 5 C2.36 5, 2.21 4.99, 2.07 4.96 C1.92 4.94, 1.78 4.9, 1.65 4.85 C1.51 4.8, 1.38 4.74, 1.25 4.67 C1.13 4.59, 1 4.51, 0.89 4.42 C0.78 4.32, 0.68 4.22, 0.59 4.11 C0.49 4, 0.41 3.88, 0.34 3.75 C0.26 3.63, 0.2 3.49, 0.15 3.36 C0.1 3.22, 0.06 3.08, 0.04 2.94 C0.01 2.79, 0 2.65, 0 2.5 C0 2.36, 0.01 2.21, 0.04 2.07 C0.06 1.92, 0.1 1.78, 0.15 1.65 C0.2 1.51, 0.26 1.38, 0.34 1.25 C0.41 1.13, 0.49 1, 0.59 0.89 C0.68 0.78, 0.78 0.68, 0.89 0.59 C1 0.49, 1.13 0.41, 1.25 0.34 C1.38 0.26, 1.51 0.2, 1.65 0.15 C1.78 0.1, 1.92 0.06, 2.07 0.04 C2.21 0.01, 2.36 0, 2.5 0 C2.65 0, 2.79 0.01, 2.94 0.04 C3.08 0.06, 3.22 0.1, 3.36 0.15 C3.49 0.2, 3.63 0.26, 3.75 0.34 C3.88 0.41, 4 0.49, 4.11 0.59 C4.22 0.68, 4.32 0.78, 4.42 0.89 C4.51 1, 4.59 1.13, 4.67 1.25 C4.74 1.38, 4.8 1.51, 4.85 1.65 C4.9 1.78, 4.94 1.92, 4.96 2.07 C4.99 2.21, 5 2.43, 5 2.5 C5.01 2.57, 5.01 2.43, 5 2.5" stroke="none" stroke-width="0" fill="#40c057"></path><path d="M5 2.5 C5 2.65, 4.99 2.79, 4.96 2.94 C4.94 3.08, 4.9 3.22, 4.85 3.36 C4.8 3.49, 4.74 3.63, 4.67 3.75 C4.59 3.88, 4.51 4, 4.42 4.11 C4.32 4.22, 4.22 4.32, 4.11 4.42 C4 4.51, 3.88 4.59, 3.75 4.67 C3.63 4.74, 3.49 4.8, 3.36 4.85 C3.22 4.9, 3.08 4.94, 2.94 4.96 C2.79 4.99, 2.65 5, 2.5 5 C2.36 5, 2.21 4.99, 2.07 4.96 C1.92 4.94, 1.78 4.9, 1.65 4.85 C1.51 4.8, 1.38 4.74, 1.25 4.67 C1.13 4.59, 1 4.51, 0.89 4.42 C0.78 4.32, 0.68 4.22, 0.59 4.11 C0.49 4, 0.41 3.88, 0.34 3.75 C0.26 3.63, 0.2 3.49, 0.15 3.36 C0.1 3.22, 0.06 3.08, 0.04 2.94 C0.01 2.79, 0 2.65, 0 2.5 C0 2.36, 0.01 2.21, 0.04 2.07 C0.06 1.92, 0.1 1.78, 0.15 1.65 C0.2 1.51, 0.26 1.38, 0.34 1.25 C0.41 1.13, 0.49 1, 0.59 0.89 C0.68 0.78, 0.78 0.68, 0.89 0.59 C1 0.49, 1.13 0.41, 1.25 0.34 C1.38 0.26, 1.51 0.2, 1.65 0.15 C1.78 0.1, 1.92 0.06, 2.07 0.04 C2.21 0.01, 2.36 0, 2.5 0 C2.65 0, 2.79 0.01, 2.94 0.04 C3.08 0.06, 3.22 0.1, 3.36 0.15 C3.49 0.2, 3.63 0.26, 3.75 0.34 C3.88 0.41, 4 0.49, 4.11 0.59 C4.22 0.68, 4.32 0.78, 4.42 0.89 C4.51 1, 4.59 1.13, 4.67 1.25 C4.74 1.38, 4.8 1.51, 4.85 1.65 C4.9 1.78, 4.94 1.92, 4.96 2.07 C4.99 2.21, 5 2.43, 5 2.5 C5.01 2.57, 5.01 2.43, 5 2.5" stroke="#000000" stroke-width="1" fill="none"></path></g><g stroke-opacity="0.9" fill-opacity="0.9" stroke-linecap="round" transform="translate(417.26393667425543 30.77465983187085) rotate(0 21.360101269687846 21.36010126968786)"><path d="M12.35 2.44 C16.1 0.47, 22.83 -0.75, 27.39 0.51 C31.94 1.77, 37.13 5.93, 39.69 9.99 C42.25 14.05, 43.41 20.38, 42.78 24.86 C42.14 29.34, 39.2 34.02, 35.86 36.88 C32.52 39.75, 27.46 41.92, 22.75 42.04 C18.04 42.16, 11.36 40.16, 7.58 37.59 C3.79 35.02, 1.04 31, 0.04 26.61 C-0.96 22.21, -1.13 15.59, 1.59 11.23 C4.3 6.88, 13.41 2.18, 16.32 0.47 C19.22 -1.24, 18.93 0.59, 19.02 0.96 M28 1.23 C32.33 1.79, 35.74 5.02, 37.94 8.48 C40.15 11.94, 41.63 17.23, 41.22 21.99 C40.81 26.74, 38.29 33.53, 35.5 37 C32.72 40.48, 29.08 42.65, 24.52 42.84 C19.96 43.02, 12.32 40.6, 8.14 38.13 C3.96 35.66, 0.63 32.42, -0.57 28.02 C-1.77 23.62, -0.95 15.94, 0.96 11.72 C2.86 7.5, 6.6 4.34, 10.86 2.69 C15.12 1.04, 23.73 2.08, 26.53 1.81 C29.32 1.53, 27.56 0.92, 27.62 1.04" stroke="none" stroke-width="0" fill="#04aaf7"></path><path d="M13.39 1.22 C17.36 -0.51, 23.1 0.51, 27.51 2.13 C31.92 3.75, 37.43 7.29, 39.85 10.94 C42.27 14.6, 42.78 19.57, 42.02 24.08 C41.26 28.58, 38.72 34.73, 35.27 37.96 C31.82 41.19, 25.86 43.29, 21.3 43.44 C16.74 43.59, 11.42 42.03, 7.91 38.87 C4.41 35.72, 1.08 29.03, 0.27 24.51 C-0.54 20, 0.69 15.65, 3.07 11.78 C5.45 7.91, 12.16 3.22, 14.56 1.28 C16.96 -0.66, 17.21 0.01, 17.48 0.14 M19.18 0.44 C23.28 -0.25, 29.24 1.03, 33.05 3.44 C36.87 5.85, 40.58 10.23, 42.09 14.89 C43.59 19.56, 43.78 26.92, 42.09 31.43 C40.41 35.94, 36.18 40, 31.98 41.97 C27.79 43.93, 21.41 44.41, 16.91 43.22 C12.41 42.03, 7.55 38.7, 4.97 34.81 C2.38 30.92, 1.41 24.83, 1.4 19.88 C1.39 14.93, 1.94 8.27, 4.91 5.12 C7.89 1.97, 17.01 1.95, 19.24 1 C21.47 0.05, 18.41 -0.83, 18.3 -0.57" stroke="#000000" stroke-width="1" fill="none"></path></g><g stroke-linecap="round"><g transform="translate(444.34210073623103 46.999011896328454) rotate(0 -3.464089655359544 6.480451691366923)" fill-rule="evenodd"><path d="M0 0 L-1.83 -0.41 L-7.57 -6.27 L-9.75 -6.1 L-11.36 -4.35 L-12.61 2.37 L-11.27 6.74 L-17.42 8.89 L-18 11.42 L-17.2 13.64 L-15.01 14.04 L-12.38 13.35 L-8.7 9.48 L-3.62 17.87 L-1.49 19.38 L-0.42 18.17 L-3.78 4.8 L-1.52 3.64 L1.39 4.35 L3.16 5.87 L6.21 6.29 L9.24 5.87 L10.81 3.22 L10.8 0.63 L4.22 1.11 L5.49 -5.76 L4.23 -6.26 L2.47 -5.35 L-0.24 -0.92 L0 0" stroke="none" stroke-width="0" fill="#40c057" fill-rule="evenodd"></path><path d="M0 0 C-0.31 -0.07, -0.57 0.63, -1.83 -0.41 C-3.09 -1.46, -5.98 -5.62, -7.57 -6.27 C-9.16 -6.93, -10.52 -5.79, -11.36 -4.35 C-12.2 -2.91, -12.63 0.53, -12.61 2.37 C-12.6 4.22, -10.47 5.65, -11.27 6.74 C-12.07 7.83, -16.44 7.74, -17.42 8.89 C-18.41 10.04, -18.04 12.9, -17.2 13.64 C-16.36 14.39, -13.8 14.04, -12.38 13.35 C-10.96 12.66, -10.16 8.72, -8.7 9.48 C-7.24 10.23, -5 16.42, -3.62 17.87 C-2.24 19.32, -0.39 20.35, -0.42 18.17 C-0.44 15.99, -4.08 7.1, -3.78 4.8 C-3.48 2.5, 0.23 4.17, 1.39 4.35 C2.54 4.53, 1.85 5.61, 3.16 5.87 C4.47 6.12, 7.96 6.74, 9.24 5.87 C10.51 5, 11.64 1.43, 10.8 0.63 C9.97 -0.16, 5.11 2.18, 4.22 1.11 C3.34 0.04, 5.78 -4.68, 5.49 -5.76 C5.19 -6.84, 3.43 -6.15, 2.47 -5.35 C1.52 -4.54, 0.17 -1.81, -0.24 -0.92 C-0.65 -0.03, -0.04 -0.15, 0 0 M0 0 C-0.31 -0.07, -0.57 0.63, -1.83 -0.41 C-3.09 -1.46, -5.98 -5.62, -7.57 -6.27 C-9.16 -6.93, -10.52 -5.79, -11.36 -4.35 C-12.2 -2.91, -12.63 0.53, -12.61 2.37 C-12.6 4.22, -10.47 5.65, -11.27 6.74 C-12.07 7.83, -16.44 7.74, -17.42 8.89 C-18.41 10.04, -18.04 12.9, -17.2 13.64 C-16.36 14.39, -13.8 14.04, -12.38 13.35 C-10.96 12.66, -10.16 8.72, -8.7 9.48 C-7.24 10.23, -5 16.42, -3.62 17.87 C-2.24 19.32, -0.39 20.35, -0.42 18.17 C-0.44 15.99, -4.08 7.1, -3.78 4.8 C-3.48 2.5, 0.23 4.17, 1.39 4.35 C2.54 4.53, 1.85 5.61, 3.16 5.87 C4.47 6.12, 7.96 6.74, 9.24 5.87 C10.51 5, 11.64 1.43, 10.8 0.63 C9.97 -0.16, 5.11 2.18, 4.22 1.11 C3.34 0.04, 5.78 -4.68, 5.49 -5.76 C5.19 -6.84, 3.43 -6.15, 2.47 -5.35 C1.52 -4.54, 0.17 -1.81, -0.24 -0.92 C-0.65 -0.03, -0.04 -0.15, 0 0" stroke="#087f5b" stroke-width="1" fill="none"></path></g></g><mask></mask><g stroke-linecap="round"><g stroke-opacity="0.9" fill-opacity="0.9" transform="translate(418.322999148283 51.737533395051855) rotate(0 20.929259995189852 0.035494871431779984)"><path d="M-0.87 -1.07 C6.09 -0.99, 35.61 -0.45, 42.73 -0.45 M0.87 0.98 C7.64 1.3, 35.43 1.07, 42.12 0.86" stroke="#000000" stroke-width="1" fill="none"></path></g></g><mask></mask><g stroke-linecap="round"><g stroke-opacity="0.9" fill-opacity="0.9" transform="translate(423.4183281780573 36.3030044680857) rotate(0 14.659303301924297 2.6276150615775435)"><path d="M0 0 C0.13 0.38, 0.09 1.58, 0.77 2.28 C1.46 2.97, 2.81 3.68, 4.1 4.19 C5.4 4.7, 6.64 5.13, 8.54 5.34 C10.43 5.55, 12.97 5.55, 15.48 5.45 C17.99 5.34, 21.44 5.28, 23.58 4.71 C25.72 4.14, 27.36 2.86, 28.32 2.03 C29.27 1.2, 29.15 0.12, 29.32 -0.26 M0 0 C0.13 0.38, 0.09 1.58, 0.77 2.28 C1.46 2.97, 2.81 3.68, 4.1 4.19 C5.4 4.7, 6.64 5.13, 8.54 5.34 C10.43 5.55, 12.97 5.55, 15.48 5.45 C17.99 5.34, 21.44 5.28, 23.58 4.71 C25.72 4.14, 27.36 2.86, 28.32 2.03 C29.27 1.2, 29.15 0.12, 29.32 -0.26" stroke="#000000" stroke-width="1" fill="none"></path></g></g><mask></mask><g stroke-opacity="0.9" fill-opacity="0.9" stroke-linecap="round" transform="translate(431.4922441019768 29.392130202278167) rotate(0 7.764217176558077 22.41115194065472)"><path d="M7.24 0.62 C8.87 -0.34, 10.46 0.63, 11.79 3.37 C13.12 6.11, 14.77 12.18, 15.21 17.05 C15.65 21.92, 15.11 28.17, 14.42 32.61 C13.74 37.05, 12.55 41.91, 11.09 43.67 C9.62 45.44, 7.2 44.46, 5.64 43.2 C4.09 41.93, 2.81 39.82, 1.77 36.09 C0.73 32.37, -0.81 25.88, -0.61 20.83 C-0.4 15.77, 1.49 9.38, 3 5.76 C4.5 2.14, 7.47 -0.13, 8.43 -0.88 C9.38 -1.64, 8.81 0.73, 8.71 1.23 M8.79 -0.66 C10.67 -0.17, 13.36 4.34, 14.73 8.19 C16.09 12.03, 16.95 17.6, 16.99 22.4 C17.02 27.2, 16.01 33.16, 14.94 36.98 C13.88 40.8, 12.14 44.35, 10.59 45.3 C9.03 46.25, 7.48 45.23, 5.61 42.69 C3.75 40.15, 0.29 34.36, -0.61 30.06 C-1.51 25.77, -0.3 21.48, 0.2 16.9 C0.7 12.32, 1.14 5.34, 2.39 2.61 C3.64 -0.13, 6.75 0.85, 7.71 0.5 C8.67 0.15, 8.2 0.07, 8.15 0.53" stroke="#000000" stroke-width="1" fill="none"></path></g><g stroke-linecap="round"><g stroke-opacity="0.9" fill-opacity="0.9" transform="translate(424.9342796876832 68.04009652652661) rotate(0 14.659303301924297 -2.7126663098105297)"><path d="M0 0 C0.68 -0.72, 2.68 -3.4, 4.1 -4.32 C5.53 -5.24, 6.64 -5.3, 8.54 -5.52 C10.43 -5.73, 12.97 -5.73, 15.48 -5.63 C17.99 -5.52, 21.44 -5.45, 23.58 -4.86 C25.72 -4.28, 27.36 -2.95, 28.32 -2.1 C29.27 -1.24, 29.15 -0.12, 29.32 0.27 M0 0 C0.68 -0.72, 2.68 -3.4, 4.1 -4.32 C5.53 -5.24, 6.64 -5.3, 8.54 -5.52 C10.43 -5.73, 12.97 -5.73, 15.48 -5.63 C17.99 -5.52, 21.44 -5.45, 23.58 -4.86 C25.72 -4.28, 27.36 -2.95, 28.32 -2.1 C29.27 -1.24, 29.15 -0.12, 29.32 0.27" stroke="#000000" stroke-width="1" fill="none"></path></g></g><mask></mask><g stroke-linecap="round"><g transform="translate(95.71464630289654 151.2685169498888) rotate(0 138.12376640103753 -51.42584346026308)"><path d="M0.46 0.62 C46.53 -16.57, 231.19 -86.19, 277.01 -103.47 M-0.76 -0.1 C45.19 -17.14, 230.75 -85.43, 276.59 -102.41" stroke="#000000" stroke-width="1" fill="none"></path></g><g transform="translate(95.71464630289654 151.2685169498888) rotate(0 138.12376640103753 -51.42584346026308)"><path d="M254.73 -81.35 C260.23 -90.98, 268.93 -97.15, 277.21 -103.6 M254.2 -82.74 C261.83 -90.34, 270.26 -95.76, 277 -102.82" stroke="#000000" stroke-width="1" fill="none"></path></g><g transform="translate(95.71464630289654 151.2685169498888) rotate(0 138.12376640103753 -51.42584346026308)"><path d="M247.62 -100.6 C255.56 -103.52, 266.75 -102.97, 277.21 -103.6 M247.09 -101.99 C257.11 -102.84, 268.02 -101.51, 277 -102.82" stroke="#000000" stroke-width="1" fill="none"></path></g></g><mask></mask><g stroke-linecap="round" transform="translate(110.30642540846873 252.1163724389193) rotate(0 35.408220894427814 54.15214451096949)"><path d="M-1.68 1.23 L72.19 -1.84 L69.17 107.38 L1.81 108.15" stroke="none" stroke-width="0" fill="#ced4da"></path><path d="M-1.19 -0.73 C21.48 -1.97, 46.44 -1.33, 70.38 -0.35 M0.36 0.63 C25.33 0.98, 51.65 0.49, 70.92 0.67 M71.95 -1.35 C71.54 35.21, 72.05 75.84, 69.74 109.45 M70.46 0.32 C72.26 42.12, 70.55 84.12, 70.17 108.22 M70.24 106.48 C51.76 106.88, 30.31 108.19, -1.55 109.99 M71.13 107.41 C47.15 108.49, 24.05 107.66, 0.38 108.03 M1 109.99 C-1.69 78.36, 0.48 53.41, 0.26 1.16 M-0.15 108.79 C0.29 65.98, 0.29 22.54, -0.76 -0.89" stroke="#000000" stroke-width="1" fill="none"></path></g><g stroke-linecap="round" transform="translate(118.41412949856033 260.37355378931625) rotate(0 27.900581767571623 41.41639447687882)"><path d="M1.23 1.38 L53.96 -1.65 L54.88 84.64 L-0.15 84.66" stroke="none" stroke-width="0" fill="#fff"></path><path d="M-0.73 -1.59 C9.85 0.63, 21.99 -0.1, 55.45 1.31 M0.63 -0.57 C17.47 -0.36, 33.81 -0.1, 56.47 0.42 M54.45 0.92 C54.39 24.71, 57.99 45.47, 56.95 84.64 M56.12 0.84 C56.09 28.6, 55.8 58.29, 55.71 82.78 M53.97 84.62 C33.68 83.87, 14.86 81.13, 1.69 83.51 M54.91 82.8 C34.58 83.52, 12.22 83.39, -0.28 82.42 M1.69 81.62 C-1.5 55.27, 1.63 26.03, 1.16 1.85 M0.48 83.56 C-0.53 55.36, -1.48 25.67, -0.89 -0.84" stroke="#000000" stroke-width="1" fill="none"></path></g><g stroke-linecap="round" transform="translate(140.60079926291246 346.751236911901) rotate(0 5.713912003219434 5.713912003219434)"><path d="M6.87 -0.22 C8.18 -0.14, 9.97 0.74, 10.81 1.95 C11.65 3.16, 12.18 5.87, 11.91 7.01 C11.64 8.15, 10.04 7.95, 9.18 8.79 C8.32 9.62, 7.84 11.66, 6.74 12.03 C5.64 12.4, 3.54 11.73, 2.6 11 C1.67 10.27, 1.34 8.94, 1.13 7.64 C0.92 6.34, 0.93 4.25, 1.37 3.19 C1.8 2.13, 2.6 1.61, 3.74 1.28 C4.89 0.96, 7.51 1.4, 8.24 1.23 C8.96 1.07, 8.29 0.49, 8.07 0.32 M6.21 -0.42 C7.4 0.07, 10.81 1.33, 11.9 2.55 C12.99 3.76, 12.93 5.68, 12.75 6.88 C12.56 8.08, 11.77 8.86, 10.78 9.75 C9.8 10.63, 8.16 12.2, 6.84 12.17 C5.53 12.14, 3.87 10.63, 2.89 9.58 C1.91 8.54, 1.09 6.99, 0.95 5.92 C0.8 4.85, 1.79 4.25, 2.01 3.14 C2.24 2.04, 1.29 -0.42, 2.3 -0.7 C3.31 -0.98, 6.97 1.24, 8.07 1.46 C9.16 1.68, 8.94 0.83, 8.88 0.64" stroke="none" stroke-width="0" fill="#fff"></path><path d="M3.22 0.3 C4.34 -0.14, 6.86 -0.19, 7.99 0.25 C9.13 0.69, 9.35 2, 10.02 2.92 C10.7 3.85, 11.97 4.66, 12.02 5.79 C12.07 6.92, 11.27 8.75, 10.31 9.7 C9.34 10.66, 7.46 11.35, 6.24 11.53 C5.02 11.7, 4.04 11.39, 2.99 10.73 C1.95 10.06, 0.27 8.91, -0.03 7.53 C-0.34 6.16, 0.47 3.84, 1.17 2.49 C1.87 1.14, 3.58 -0.34, 4.17 -0.54 C4.77 -0.75, 4.88 0.93, 4.75 1.27 M7.68 1.05 C8.83 1.32, 11.82 2.22, 12.19 3.14 C12.56 4.07, 10.62 5.41, 9.91 6.61 C9.2 7.8, 8.76 9.37, 7.94 10.32 C7.13 11.27, 5.9 12.49, 5.04 12.31 C4.19 12.13, 3.89 10.07, 2.82 9.26 C1.75 8.45, -0.82 8.46, -1.36 7.47 C-1.89 6.47, -1.27 4.67, -0.41 3.26 C0.45 1.85, 2.16 -0.62, 3.81 -0.99 C5.46 -1.35, 8.54 0.85, 9.48 1.08 C10.42 1.31, 9.62 0.64, 9.45 0.41" stroke="#000000" stroke-width="1" fill="none"></path></g><g stroke-linecap="round" transform="translate(126.69381989853082 270.9177104654564) rotate(0 19.620891367601075 9.944730235592885)"><path d="M0 0 C0 0, 0 0, 0 0 M0 0 C0 0, 0 0, 0 0 M0.19 5.93 C2.07 5.19, 3.56 2.34, 4.74 -0.33 M-0.44 6.17 C1.06 4.44, 2.73 2.87, 4.61 0.72 M-0.77 12.74 C3.78 9.94, 4.57 7.34, 10.17 1.1 M0.57 12.8 C4.51 7.75, 8.13 3.11, 10.66 -0.37 M-1.73 17.51 C6.24 13.94, 7.35 10.05, 14.48 1.83 M-0.1 17.65 C4.21 15.28, 6.77 10.04, 16.47 0.1 M3.74 22.53 C6.85 16.41, 12.1 13.03, 19.8 0.94 M1.99 21.94 C7.53 16, 12.01 11.21, 20.53 0.71 M5.55 21.68 C13.21 15.75, 19.77 4.17, 26.76 2.15 M6.81 22.77 C11.38 18.45, 14.69 13.04, 26 -0.39 M14.06 21.39 C18.99 12.29, 27.77 2.99, 33.79 1.54 M12.46 21.3 C16.36 17.4, 21.57 12.41, 31.38 0.48 M16.36 21.94 C23.65 15.81, 25.6 13.48, 37.64 1.91 M17.94 22.85 C24.53 14.93, 30.86 8.3, 37.36 -0.67 M24.12 23.35 C27.74 17.38, 34.58 10.79, 39.21 0.43 M23.16 21.57 C31.38 13.06, 36.64 5.31, 40.8 0.97 M30.11 23.44 C31.05 17.18, 35.24 15.17, 40.2 6.83 M27.83 21.44 C32.39 17.88, 35.72 14.05, 41.55 7.94 M35.04 20.93 C36.28 19.89, 39.43 16.38, 41.65 12.74 M34.36 21.34 C36.64 19.02, 37.9 17.16, 41.56 12.87 M-0.04 19.86 C-0.04 19.86, -0.04 19.86, -0.04 19.86 M-0.04 19.86 C-0.04 19.86, -0.04 19.86, -0.04 19.86 M6.9 19.4 C4.59 19.24, 1.98 17.68, 0.52 14.91 M6.07 20.06 C4.98 19.4, 3.78 17.81, 0.57 15.13 M10.58 19.29 C7.43 17.46, 1.64 12.92, 0.85 10.76 M12.45 19.56 C9.37 17.62, 5.62 14.8, 0.08 8.49 M18.34 19.95 C12.45 14.16, 8.15 8.03, 2.16 4.47 M18.92 20.91 C15.64 16.5, 10.48 13.85, 1.14 5.11 M23.05 19.49 C17.8 15.11, 11.45 8.92, 0.46 -1.98 M23.72 19.7 C20.28 14.61, 14.4 12.16, -0.03 -1.63 M31.3 19.04 C26.69 16.02, 19.76 10.95, 9.01 -2.39 M29.77 19.42 C21.91 12.33, 12.1 5.28, 6.71 0.18 M38.61 21.74 C31.22 14.22, 22.53 6.15, 11.71 -1.1 M36.52 19.88 C29 12.24, 21.25 5.19, 12.07 -1.8 M39.7 17.4 C32.4 12.63, 23.63 3.97, 18.32 -2.13 M40.81 18.84 C36.39 14.94, 31.44 9.47, 18.55 -1.02 M39.82 11.93 C38.46 10.12, 35.44 5.31, 23.06 -2.89 M40.47 12.21 C36.05 9.83, 33.3 5.31, 25.21 -0.95 M40.5 6.67 C36.39 3.69, 34.29 2.81, 31.99 -0.77 M40.31 7.64 C37.22 4.09, 33.53 1.76, 31.52 -0.86 M40.81 2.31 C39.38 1.5, 39.01 0.73, 37.62 -0.73 M40.45 2.22 C39.19 1.01, 38.41 0.29, 37.46 -0.33" stroke="#fab005" stroke-width="0.5" fill="none"></path><path d="M-1.64 0.3 C8.44 -0.12, 18.53 1.63, 39.27 -0.9 M0.66 -0.15 C13.37 0.33, 27.08 0.64, 39.05 0.48 M37.44 1.43 C40.88 6.02, 40.25 15.99, 40.35 20.96 M39.08 -0.86 C38.86 4.62, 39.22 10.48, 39.85 20.69 M37.25 21.09 C27.92 18.69, 19.64 20.92, 1.72 19.54 M39.55 20.4 C25.7 20.25, 12.93 19.47, 0.44 19.44 M-1.86 20.85 C1.08 13.19, 0.98 7.81, 0.81 1.69 M0.17 20.61 C-0.87 13.47, -0.98 7.71, 0.61 0.69" stroke="#000000" stroke-width="1" fill="none"></path></g><g stroke-linecap="round" transform="translate(126.69381989853082 306.47547051041084) rotate(0 19.620891367601075 9.944730235592885)"><path d="M0 0 C0 0, 0 0, 0 0 M0 0 C0 0, 0 0, 0 0 M-0.73 7.08 C2.17 4.9, 2.94 2.18, 4.3 0.33 M-0.49 6.11 C0.7 4.96, 2.04 3.46, 5.34 0 M0.84 13.58 C4.57 7.61, 8.52 2.4, 11.77 1.35 M0.89 12.33 C3.4 8.51, 6.32 5.35, 10.29 -0.13 M-1.06 20.1 C3.84 13.09, 8.39 10.01, 17.12 -1.38 M-0.92 19.35 C4.95 13.54, 7.93 9.33, 15.4 -0.4 M2.95 22.01 C6.64 17.24, 13.06 9.11, 22.26 -1.49 M2.35 22.6 C5.88 17.67, 10.55 10.93, 22.03 0.76 M6.73 20.94 C15.37 13.25, 18.36 8.62, 28.11 -1.36 M7.81 22.34 C15.21 13.59, 21.52 6.02, 25.57 1.28 M12.47 20.19 C16.71 15.96, 20.75 12.95, 33.54 -2.03 M12.38 21.37 C18.35 16.55, 23.24 8.87, 32.47 -0.98 M17.65 24.03 C22.85 14.36, 31.87 7.6, 38.53 1.04 M18.56 22.18 C22.11 17.39, 26.94 13.33, 35.95 -0.17 M25.09 21.27 C28.26 19.05, 30.78 10.79, 40.27 3.36 M23.32 22.71 C29.65 13.27, 36.72 6.02, 40.8 1.14 M29.81 21.25 C31.4 17.41, 37.25 12.3, 40 7.3 M27.82 22.49 C31.1 19.16, 34.1 16.16, 41.12 7.99 M33.34 21.54 C37.22 19.73, 38.63 16.81, 40.66 13.05 M33.75 22.26 C35.43 19.5, 37.57 17.78, 40.8 13.79 M-0.04 19.86 C-0.04 19.86, -0.04 19.86, -0.04 19.86 M-0.04 19.86 C-0.04 19.86, -0.04 19.86, -0.04 19.86 M5.64 20.22 C5.24 17.89, 3.44 17.12, 0.37 14.19 M6.3 19.99 C5.3 18.87, 3.49 17.97, 0.58 15.15 M11.57 19.64 C9.58 14.83, 5.03 13.78, 1.46 8.68 M11.84 20.31 C8.75 16.58, 4.96 13.43, -0.81 9.36 M18.37 19.7 C13 17.05, 7.16 13.71, 0.52 2.46 M19.32 20.92 C14.05 16.14, 10.66 13.87, 1.16 3.78 M23.94 19.13 C19.56 14.16, 13.44 10.4, -0.58 -2.61 M24.16 20.58 C17.11 14.25, 12.86 8.41, -0.23 -1.35 M29.63 21.65 C25.54 14.96, 19.05 10.96, 5.15 1.18 M30.01 20.41 C22.12 12.13, 14.49 4.8, 7.71 -0.63 M38.47 21.47 C28.98 12.76, 18.72 5.13, 12.47 -0.17 M36.61 20.48 C27.71 13.43, 19.28 4.76, 11.77 -0.24 M39.96 17.81 C35.54 11.02, 27.08 5.81, 17.57 -2.24 M41.41 18.66 C34.81 12.3, 26.42 5.5, 18.68 -1.45 M39.75 14.09 C36.12 10.27, 29.49 2.65, 22.86 -2.15 M40.03 12.03 C36.79 9.57, 31.52 6.11, 24.79 -0.39 M39.83 6.87 C35.88 4.89, 34.19 1.81, 31.11 0.09 M40.8 7.56 C38.33 5.53, 37 4.43, 31.02 -0.78 M40.72 1.86 C39.76 1.62, 38.88 0.7, 37.29 -0.17 M40.64 1.94 C39.4 1.39, 38.64 0.25, 37.68 -0.49" stroke="#fab005" stroke-width="0.5" fill="none"></path><path d="M0.3 -1 C9.91 -0.03, 22 0.35, 38.34 0.73 M-0.15 0.17 C14.34 0.42, 28.89 -0.45, 39.72 0.57 M40.67 1.78 C38.26 5.76, 41.13 10.35, 40.31 19.19 M38.38 -0.45 C38.76 6.51, 39.35 13.8, 40.04 19.6 M40.44 19.21 C29.51 21.19, 23.54 21.22, -0.35 20.53 M39.75 19.37 C31.36 19.74, 22.32 20.46, -0.45 20.39 M0.96 21.14 C0.38 13.4, 1.96 5.4, 1.69 -0.3 M0.72 19.12 C-0.9 12.07, -0.98 6.65, 0.69 -0.91" stroke="#000000" stroke-width="1" fill="none"></path></g><g stroke-linecap="round" transform="translate(523.3064254084687 164.1163724389193) rotate(0 35.408220894427814 54.15214451096952)"><path d="M1.51 -0.07 L71.63 0.95 L71.88 107.04 L-1.51 107.75" stroke="none" stroke-width="0" fill="#ced4da"></path><path d="M-1.99 1.91 C26.33 0.93, 51.21 0.45, 71.21 -0.66 M-0.51 -0.43 C21.41 -0.24, 41.06 1.49, 71.52 0.2 M72.2 1.09 C69.9 31.5, 69.76 61.78, 70.3 109.34 M71.8 0.34 C69.71 25.36, 71.39 51.81, 70.87 108.84 M69.92 109.25 C49.97 106.63, 27.97 108.22, -1.33 106.79 M70.41 108.66 C48.12 108.29, 26.33 109.02, 0.93 107.53 M-1.45 107.77 C2.71 80.04, 2.41 49.79, -0.06 -0.18 M0.29 107.31 C0.66 83.02, -0.43 58.28, -0.03 -0.91" stroke="#000000" stroke-width="1" fill="none"></path></g><g stroke-linecap="round" transform="translate(531.4141294985603 172.3735537893162) rotate(0 27.90058176757168 41.41639447687882)"><path d="M-0.07 0.82 L56.75 1.07 L54.54 81.32 L-0.55 84.77" stroke="none" stroke-width="0" fill="#fff"></path><path d="M1.91 1.66 C16.41 2.44, 31.97 0.95, 55.14 -0.14 M-0.43 0.66 C21.31 -0.16, 45.22 0.99, 56.01 -0.13 M56.89 -1.14 C56.11 25.29, 55.26 52.64, 56.84 81.6 M56.14 -0.91 C55.18 24.13, 55.84 46.77, 56.34 82.98 M56.75 84.26 C41.18 84.29, 29.33 81.25, -1.52 83.03 M56.16 82.08 C33.25 82.02, 12.06 83.54, -0.78 82.59 M-0.54 84.65 C0.91 66.29, 0.49 46.64, -0.18 -1.36 M-1 83.07 C-0.52 60.38, -0.11 39.61, -0.91 0.75" stroke="#000000" stroke-width="1" fill="none"></path></g><g stroke-linecap="round" transform="translate(553.6007992629123 258.751236911901) rotate(0 5.713912003219434 5.713912003219434)"><path d="M3.3 -0.01 C4.24 -0.43, 6.03 0.79, 7.16 1.27 C8.29 1.75, 9.26 1.79, 10.1 2.88 C10.93 3.97, 12.22 6.49, 12.18 7.82 C12.15 9.15, 11.03 10.29, 9.89 10.87 C8.75 11.46, 6.81 11.56, 5.35 11.33 C3.89 11.1, 1.92 10.25, 1.11 9.48 C0.3 8.7, 0.68 7.78, 0.49 6.67 C0.29 5.56, -0.68 4.04, -0.05 2.81 C0.57 1.58, 3.41 -0.27, 4.26 -0.71 C5.1 -1.15, 5.12 -0.19, 5.02 0.17 M6.41 -0.95 C7.28 -1.23, 7.11 -0.11, 8.17 0.86 C9.23 1.82, 12.29 3.58, 12.78 4.84 C13.27 6.1, 12.04 7.3, 11.12 8.43 C10.19 9.56, 8.6 11.25, 7.23 11.63 C5.87 12.01, 4.16 11.07, 2.9 10.72 C1.64 10.37, 0.03 10.27, -0.32 9.53 C-0.67 8.79, 0.55 7.73, 0.81 6.27 C1.07 4.82, 0.51 2.1, 1.25 0.8 C1.98 -0.49, 4.65 -1.56, 5.22 -1.49 C5.79 -1.41, 4.78 0.75, 4.66 1.25" stroke="none" stroke-width="0" fill="#fff"></path><path d="M6.44 -0.31 C7.44 -0.1, 9.02 1.83, 9.71 2.67 C10.39 3.51, 10.48 3.57, 10.52 4.73 C10.56 5.9, 10.65 8.66, 9.95 9.67 C9.24 10.68, 7.27 10.48, 6.3 10.8 C5.33 11.11, 5.06 12.05, 4.13 11.58 C3.2 11.11, 1.35 9.22, 0.73 7.98 C0.11 6.73, 0.01 5.19, 0.41 4.12 C0.81 3.05, 1.98 2.14, 3.15 1.56 C4.32 0.99, 6.48 0.71, 7.43 0.66 C8.37 0.62, 8.79 1.16, 8.8 1.3 M5.46 0.78 C6.36 0.3, 5.44 -0.66, 6.52 -0.23 C7.6 0.21, 11.12 2.06, 11.93 3.38 C12.74 4.71, 11.79 6.75, 11.38 7.74 C10.96 8.73, 10.59 8.85, 9.43 9.35 C8.27 9.85, 5.54 10.48, 4.4 10.75 C3.26 11.03, 3.45 11.51, 2.58 11.01 C1.71 10.51, -0.59 9.32, -0.82 7.76 C-1.05 6.2, 0.6 2.88, 1.21 1.66 C1.82 0.44, 2.14 0.41, 2.84 0.42 C3.54 0.43, 5.28 1.54, 5.4 1.7" stroke="#000000" stroke-width="1" fill="none"></path></g><g stroke-linecap="round" transform="translate(539.6938198985307 182.91771046545642) rotate(0 19.620891367601075 9.944730235592885)"><path d="M0 0 C0 0, 0 0, 0 0 M0 0 C0 0, 0 0, 0 0 M0.32 6.2 C1.2 4.04, 4.24 2.39, 5.18 0.79 M-0.5 6.35 C1.3 5.24, 2.49 3.92, 5.16 0.05 M-1.38 12.49 C4.55 9.02, 9.62 2.83, 12.13 1.11 M0.56 12.45 C2.52 8.6, 5.75 5.68, 10.06 0.57 M1.72 18.95 C5.12 13.77, 9.18 6.68, 16.76 1.93 M0.54 17.72 C5.75 12.64, 11.07 6.23, 15.25 1.24 M3.87 22.15 C7.74 14.71, 14.86 6.07, 21.67 1.55 M3.17 21.61 C8.59 15.68, 14.99 8.31, 21.81 -0.34 M7.08 22.42 C10.36 17.62, 16.78 13.11, 26.35 2.13 M6.28 21.38 C13.24 16.24, 18.39 10.41, 26.52 -0.43 M11.11 21.62 C19.45 14.25, 26.16 9.67, 32.77 -0.99 M12.23 21.03 C17.77 16.5, 20.21 13.18, 32.09 0.52 M17.55 20.33 C25.5 13.39, 30.16 6.84, 38.33 -0.83 M18.71 21.26 C23.29 17.26, 27.02 12.01, 37.86 0.96 M21.74 23.73 C27.02 15.34, 31.76 12.46, 41.69 0.82 M22.8 22.15 C30.66 14.48, 36.51 5.48, 41.77 0.73 M29.25 23.67 C32.56 16.48, 35.67 12.5, 39.48 7.57 M27.79 22.18 C31.92 17.56, 35.72 13.65, 41.21 7.93 M34.77 21.42 C36.97 19.5, 38.14 17.27, 41.1 13.41 M34.23 21.36 C35.6 19.85, 37.16 18.21, 41.82 13.12 M-0.04 19.86 C-0.04 19.86, -0.04 19.86, -0.04 19.86 M-0.04 19.86 C-0.04 19.86, -0.04 19.86, -0.04 19.86 M6.26 19.65 C5.12 19.25, 2.75 16.52, 1 15.65 M6.08 20.44 C4.82 18.47, 3.16 17.52, 0.03 14.9 M12.39 20.84 C8.2 16.81, 6.41 12.1, -1.31 10.73 M11.42 19.18 C8.31 17.18, 5.02 13, 0.16 9.31 M18.24 20.4 C13.54 13.82, 3.62 9.65, 1.88 2.53 M18.26 20.03 C11.45 13.99, 4.85 8.57, 1.08 4.14 M25.87 18.95 C14.51 13.27, 8.5 4.98, 2.58 -2.68 M23.82 19.29 C17.38 12.92, 9.66 7.8, 0.25 -1.25 M30.99 18.2 C25.93 16.28, 19.94 11.76, 8.26 1.34 M31.43 20.81 C23.68 14.8, 16.36 7.9, 6.43 -1.25 M34.88 18.31 C27.41 11.51, 16.8 3.78, 10.72 -0.83 M37.6 19.41 C30.27 14.16, 22.05 6.35, 13.36 -0.1 M39.13 19.01 C34.74 14.35, 30.52 9.19, 20.74 0.56 M40.7 18.43 C32.74 11.1, 26.71 5.69, 19 -0.62 M41.04 13.02 C37.14 7.09, 30.6 5.73, 26.69 -1.19 M40.52 11.9 C35.94 8.85, 32.55 5.03, 24.29 -1.09 M39.71 8.4 C38.22 4.82, 35.16 2.88, 30.63 -0.24 M41.58 7.99 C38.98 6.04, 37.47 4.15, 31.22 -0.96 M40.48 2.08 C39.96 1.22, 38.93 0.99, 37.15 -0.64 M40.54 2.1 C39.62 1.51, 38.68 0.65, 37.58 -0.6" stroke="#fab005" stroke-width="0.5" fill="none"></path><path d="M0.37 1.88 C7.76 0.07, 15.08 -0.47, 41.19 -1.77 M-0.87 -0.45 C10.63 0.44, 19.74 -0.38, 39.45 -0.09 M39.62 -1.28 C38.88 6.83, 40.38 13.45, 38.88 19.45 M38.81 0.77 C39.53 7.98, 39.85 16, 38.66 19.17 M38.08 21.6 C29.66 18.84, 17.69 20.37, 1.85 21.65 M38.61 19.31 C29.15 20.53, 18.11 19.35, -0.82 20.69 M1.56 21.4 C1.2 15.3, -0.12 9.48, -0.78 0.89 M-0.15 19.03 C0.46 13.31, -0.71 7.54, -0.04 0.41" stroke="#000000" stroke-width="1" fill="none"></path></g><g stroke-linecap="round" transform="translate(539.6938198985307 218.47547051041084) rotate(0 19.620891367601075 9.944730235592885)"><path d="M0 0 C0 0, 0 0, 0 0 M0 0 C0 0, 0 0, 0 0 M-0.46 5.84 C0.83 5.51, 2.63 3.82, 5.42 -0.21 M-0.31 6.76 C1.58 4.91, 3.28 2.85, 4.68 0.67 M0.58 12.41 C4.17 10.73, 5.05 7.89, 11.77 -0.46 M0.54 11.54 C3.01 8.37, 6.41 4.48, 11.24 0.24 M0.38 18.51 C6.64 10.97, 10.97 7.06, 17.22 1.25 M-0.85 18.69 C3.54 14.78, 6.59 10.64, 16.53 0.72 M2.57 21.06 C9.91 13.13, 16.03 5.19, 22.88 0.46 M2.02 21.93 C8.68 15.71, 13.88 9.72, 20.99 -0.92 M7.46 21.03 C11.34 18.77, 15.53 13.12, 28.08 0.11 M6.43 22.45 C11.52 17.82, 15.9 13.77, 25.53 0.42 M12.7 22.49 C18.64 15.99, 27.38 8, 31 -1.94 M12.11 22.65 C17.18 15.47, 23.44 10.54, 32.51 0.12 M16.04 23.62 C21.41 16.1, 27.18 11.48, 35.79 -1.12 M16.97 23.03 C22.42 17.17, 26.6 12.9, 37.59 -0.01 M25.47 20.23 C26.2 16.19, 32.45 14.19, 40.65 3.21 M23.9 22.01 C29.75 14.64, 34.3 9.64, 40.57 1.85 M30.04 21.78 C31 16.88, 35.15 13.35, 40.75 7.66 M28.55 22.02 C33.05 16.59, 38.27 11.17, 41.11 7.61 M33.83 22.46 C35.96 19.6, 37.76 17.55, 41.34 12.42 M33.77 21.6 C35.55 19.87, 37.19 18.63, 41.05 13.84 M-0.04 19.86 C-0.04 19.86, -0.04 19.86, -0.04 19.86 M-0.04 19.86 C-0.04 19.86, -0.04 19.86, -0.04 19.86 M5.9 20.65 C5.52 18.71, 2.79 18.07, 1.1 14.5 M6.68 20.08 C4.52 18.67, 3.5 17.34, 0.36 14.81 M13.12 19.3 C9.27 18.34, 4.52 13.25, 1.43 9.19 M11.46 19.64 C8.59 16.51, 3.68 13.17, 0.01 9.71 M18.81 21.58 C13.28 14.13, 10.13 13.48, -1.42 5.72 M18.44 19.86 C12.12 14.78, 6.56 10.27, 0.19 4.58 M23.41 18.04 C15.46 12.22, 4.94 6.05, -1.28 -0.94 M23.75 19.62 C17.49 13.51, 12.37 8.87, 0.14 -1.67 M28.79 20.34 C22.82 11.79, 13.91 6.17, 8.88 -0.83 M31.4 19.83 C22.32 11.96, 12.66 4.67, 6.29 0.34 M35.04 19.82 C30.5 12.96, 24.75 7.37, 12.73 -0.67 M36.14 20.97 C31.17 14.88, 23.5 9.88, 13.47 -1.22 M41.58 17.99 C35.36 13.84, 28.88 8.76, 20.27 0.36 M41 17.74 C34.43 14.18, 29.77 8.04, 19.09 -0.85 M40.84 13.65 C34.92 8.07, 33.41 7.84, 24.55 -1.36 M39.72 12.49 C36.88 10.59, 33.51 6.35, 24.65 -1.49 M41.56 7.53 C37.2 4.39, 34.59 2.28, 31.64 -2.03 M41.15 7.77 C38.12 5.96, 35.22 3.2, 30.92 -1.05 M40.49 2.3 C39.56 1.38, 39.25 0.44, 37.37 -0.53 M40.51 2.11 C39.58 1.09, 38.39 0.28, 37.41 -0.34" stroke="#fab005" stroke-width="0.5" fill="none"></path><path d="M1.88 -0.11 C15.92 -0.73, 30.91 1.88, 37.47 -1.02 M-0.45 0.86 C10.79 0.54, 20.04 0.55, 39.16 0.69 M37.97 -0.47 C38.62 8.08, 37.9 13.75, 38.8 21.85 M40.01 0.22 C39.11 7.18, 39.21 12.7, 38.52 19.44 M40.95 20.32 C24.27 18.14, 12.17 21.52, 1.76 19.08 M38.66 19.98 C27.01 18.86, 12.66 18.82, 0.8 19.17 M1.51 21.04 C-0.24 14.28, -1.53 8.24, 0.89 0.58 M-0.86 20.15 C-0.08 15, 0.7 11.88, 0.41 0.47" stroke="#000000" stroke-width="1" fill="none"></path></g><g stroke-linecap="round" transform="translate(502.3064254084687 425.1163724389193) rotate(0 35.408220894427814 54.15214451096949)"><path d="M-1.27 -1.51 L70.26 1.94 L71.12 108.84 L-0.07 107.59" stroke="none" stroke-width="0" fill="#ced4da"></path><path d="M-0.11 0.4 C26.47 -0.81, 56.22 -2.43, 69.79 -0.86 M0.86 0.7 C26.1 0.19, 52 0.23, 71.51 0.55 M70.35 -0.51 C72.06 25.08, 70.66 52.19, 72.79 108.98 M71.04 0.05 C70.88 22.79, 69.75 44.55, 70.37 108.78 M71.25 106.97 C43 109.11, 20.07 110.67, -0.81 109.01 M70.91 109.24 C54.1 107.65, 38.11 108.69, -0.72 108.04 M1.15 108.24 C-1.03 64.59, -1.64 24.49, 0.59 -1.99 M0.26 108.27 C-0.75 74.01, 0.12 38.62, 0.47 0.53" stroke="#000000" stroke-width="1" fill="none"></path></g><g stroke-linecap="round" transform="translate(510.4141294985603 433.3735537893162) rotate(0 27.90058176757168 41.41639447687885)"><path d="M-1.51 -0.55 L57.74 0.3 L56.34 82.76 L-0.71 83.61" stroke="none" stroke-width="0" fill="#fff"></path><path d="M0.4 -0.66 C17.63 1.98, 33.77 -0.99, 54.94 1.31 M0.7 0.2 C11.78 -0.27, 23.72 0.21, 56.35 -0.57 M55.29 1.04 C54.03 26.06, 54.83 54.8, 56.48 81.01 M55.85 0.54 C56.59 20.64, 55.71 42.02, 56.28 83.55 M54.47 81.32 C42.51 84.81, 30.57 82.14, 0.71 81.34 M56.73 82.06 C42.35 82.06, 30.18 82.16, -0.27 83.74 M-0.06 82.66 C-1.99 50.69, 0.27 20.7, -1.99 0.47 M-0.03 81.92 C1.47 59.16, 1.12 36.03, 0.53 -0.63" stroke="#000000" stroke-width="1" fill="none"></path></g><g stroke-linecap="round" transform="translate(532.6007992629123 519.7512369119011) rotate(0 5.713912003219434 5.713912003219434)"><path d="M3.17 1.38 C4.21 1.1, 6.81 0.81, 8.13 1 C9.44 1.19, 10.53 1.75, 11.06 2.53 C11.59 3.31, 11.6 4.39, 11.3 5.69 C11 6.98, 10.08 9.52, 9.25 10.31 C8.43 11.1, 7.47 10.45, 6.35 10.42 C5.24 10.4, 3.72 10.68, 2.55 10.16 C1.37 9.64, -0.37 8.63, -0.7 7.31 C-1.03 5.99, -0.32 3.43, 0.57 2.25 C1.46 1.08, 3.94 0.51, 4.64 0.26 C5.34 0.01, 4.78 0.76, 4.77 0.75 M3.83 0.8 C4.95 -0.02, 6.24 -0.4, 7.46 -0.24 C8.69 -0.08, 10.58 0.82, 11.17 1.76 C11.75 2.7, 11.1 3.91, 10.97 5.4 C10.84 6.9, 10.98 9.84, 10.37 10.72 C9.77 11.61, 8.79 10.87, 7.32 10.71 C5.86 10.56, 3.01 10.6, 1.56 9.8 C0.11 9, -1.41 7.23, -1.37 5.91 C-1.33 4.59, 0.83 2.62, 1.82 1.89 C2.8 1.15, 4.28 1.89, 4.52 1.48 C4.77 1.08, 3.41 -0.6, 3.27 -0.53" stroke="none" stroke-width="0" fill="#fff"></path><path d="M5 -0.43 C6.11 -0.54, 8.91 -0.62, 9.89 0.34 C10.86 1.31, 10.6 4.01, 10.86 5.39 C11.12 6.76, 11.98 7.63, 11.46 8.6 C10.94 9.57, 8.99 10.68, 7.73 11.22 C6.46 11.76, 4.91 12.35, 3.86 11.84 C2.81 11.33, 2.02 9.43, 1.41 8.17 C0.81 6.91, 0.2 5.44, 0.24 4.28 C0.29 3.12, 0.59 2.02, 1.66 1.21 C2.73 0.4, 5.85 -0.4, 6.67 -0.6 C7.5 -0.8, 6.52 -0.26, 6.59 -0.01 M3.53 0.66 C4.79 -0.07, 6.91 0.29, 7.9 0.39 C8.89 0.49, 8.98 0.19, 9.45 1.26 C9.92 2.33, 10.5 5.56, 10.74 6.82 C10.99 8.08, 11.42 7.99, 10.9 8.81 C10.37 9.62, 9.16 11.64, 7.6 11.72 C6.03 11.81, 2.73 9.82, 1.52 9.32 C0.32 8.81, 0.32 9.77, 0.37 8.69 C0.42 7.6, 1.25 4.32, 1.81 2.79 C2.37 1.25, 3.65 -0.05, 3.74 -0.54 C3.82 -1.04, 2.33 -0.69, 2.31 -0.19" stroke="#000000" stroke-width="1" fill="none"></path></g><g stroke-linecap="round" transform="translate(518.6938198985307 443.9177104654564) rotate(0 19.620891367601075 9.944730235592885)"><path d="M0 0 C0 0, 0 0, 0 0 M0 0 C0 0, 0 0, 0 0 M0.29 6.59 C1.38 4.4, 2.25 3.97, 4.5 0.27 M0.05 6.57 C1.44 4.3, 3.56 1.79, 4.61 0.47 M0.1 13.54 C4.55 7.62, 6.59 4.48, 11.49 0.78 M0.4 11.48 C3.25 9.46, 5.47 6.21, 11.37 0.17 M0.18 19.58 C6.14 13.96, 7.35 6.54, 16.95 -1.11 M0.13 18.07 C5.83 12.93, 10.88 6.03, 16.44 0.49 M1.22 22.23 C8.82 16.62, 11.88 9.04, 23.13 -0.49 M2.89 22.37 C7.69 14.11, 12.96 9.03, 21.19 0.05 M7.74 22.28 C13.64 16.58, 14.46 10.44, 24.36 -1.3 M8.09 22.45 C12.66 15.17, 19.99 7.57, 25.37 0.21 M14.41 22.67 C18.44 12.46, 25 5.8, 30.61 -1.61 M13.26 21.98 C21.03 13.66, 27.54 5.78, 31.74 -1.01 M16.81 23.6 C24.04 12.59, 30.84 4.35, 38.6 -1.52 M17.69 23.12 C25.95 13.33, 31.65 5.8, 36 1.25 M25.47 22.23 C26.98 19.16, 31.79 14.39, 39.83 2.18 M23.34 22.31 C28.45 15.74, 34.39 8.3, 41.61 2.19 M28.82 20.64 C31.86 18.05, 37.36 14.66, 39.57 7.9 M28.5 22.37 C32.31 17.78, 35.13 13.47, 41.5 7.52 M34.36 21.47 C36.77 17.67, 38.48 15.04, 41.54 12.7 M34.06 22.19 C35.88 19.83, 38.19 17.34, 41.84 13.89 M-0.04 19.86 C-0.04 19.86, -0.04 19.86, -0.04 19.86 M-0.04 19.86 C-0.04 19.86, -0.04 19.86, -0.04 19.86 M5.9 20.79 C4.88 17.82, 1.35 17.05, -0.24 15.51 M6.37 19.83 C4.7 18.51, 2.72 16.66, 0.42 15.15 M10.47 18.49 C10.19 16.91, 5.7 15.07, -1.25 8.14 M11.45 19.96 C8.52 17.2, 4.59 13.62, -0.14 9.39 M19.42 21.58 C9.86 15.33, 5.34 8.82, 0 4.32 M18.69 20.77 C13.12 15.81, 8.87 11.03, 1.2 3.92 M23 21.52 C16.86 14.9, 12.63 10.04, 0.2 -1.34 M24.12 19.19 C16.6 12.3, 10.7 6.32, 0.92 -1.57 M30.97 21.07 C24.6 12.83, 16.46 7.98, 9.02 1.42 M29.82 19.24 C22.6 14.45, 15.91 6.92, 6.06 -1.39 M36.73 18.14 C30.04 14.13, 22.38 7.29, 14.21 -2.28 M36.19 20.78 C28.18 11.71, 18 4.52, 11.77 -0.58 M41.76 20.06 C35.97 14.2, 28.05 7.9, 18.53 -0.57 M41.52 18.32 C35.99 13.94, 30.39 9.1, 19.32 -0.49 M41.28 14.72 C35.07 7.57, 28.12 4.86, 24.62 -2.73 M40.5 12.33 C36.21 8.67, 31.85 6.04, 23.78 -0.53 M40.28 7.28 C38.75 4.04, 35.22 3.31, 32.41 -0.33 M40.72 7.86 C37.8 4.99, 34.75 2.52, 31.02 -0.84 M40.74 1.76 C39.38 1.2, 38.75 0.42, 37.51 -0.55 M40.59 2.18 C39.55 1.51, 38.94 0.65, 37.43 -0.59" stroke="#fab005" stroke-width="0.5" fill="none"></path><path d="M-0.14 1.95 C9.79 -0.89, 22.26 1.44, 37.51 -0.89 M-0.13 0.21 C15.06 0.61, 30.84 -0.65, 39.43 -0.64 M38.01 -0.36 C38.75 7.46, 39.87 9.19, 38.37 21.42 M39.39 -0.59 C38.53 5.96, 39.72 13.51, 38.66 20.74 M39.44 21.74 C28.37 18.78, 14.7 18.09, -1.27 18.73 M39 19.07 C27.92 18.86, 14.72 20.5, 0.79 20.65 M-1.35 19.11 C0.9 13.36, -1.97 6.13, -0.29 -1.71 M0.75 19.85 C0.41 13.87, 0.54 6.27, -0.75 -0.27" stroke="#000000" stroke-width="1" fill="none"></path></g><g stroke-linecap="round" transform="translate(518.6938198985307 479.47547051041084) rotate(0 19.620891367601075 9.944730235592885)"><path d="M0 0 C0 0, 0 0, 0 0 M0 0 C0 0, 0 0, 0 0 M-0.07 6.83 C0.67 4.68, 3.17 2.34, 4.89 1.09 M-0.09 6.09 C1.89 3.93, 3.64 1.62, 5.1 0.45 M1.63 13.18 C3.79 7.02, 8.73 3.27, 11.44 -1.04 M-0.43 12.65 C3.42 8.9, 6.02 5.86, 10.83 -0.01 M1.02 20.05 C6.69 9.79, 10.57 6.42, 14.18 0.82 M-0.5 19.36 C5.59 13.1, 9.93 6.91, 15.78 -0.05 M2.64 23.44 C8.67 14.83, 12.73 10.22, 20.84 0.15 M2.79 21.55 C8.7 12.3, 17.8 4.65, 21.38 -0.64 M7.33 24.01 C12.92 13.26, 18.09 6.42, 24.66 0.84 M7.49 21.46 C13.73 15.1, 19.64 6.53, 26.17 0.65 M13.75 20.89 C15.87 15.16, 21.56 8.84, 30.39 1.63 M13.06 22.4 C17.34 16.75, 22.03 12.09, 30.98 0.63 M19.3 21.05 C20.71 15.97, 24.89 14.21, 35.11 2.03 M18.83 22.85 C23.31 14.54, 30.06 8.01, 37.87 -0.5 M23.98 21.19 C30.18 16.46, 34.66 9.41, 42.01 1.89 M24.06 21.11 C30.97 13.44, 37 6.47, 42.03 1.2 M27.01 21.91 C31.79 20.07, 35.76 13.12, 41.08 7.58 M28.75 22.27 C31.67 17.62, 34.87 14.95, 40.69 8.41 M33.89 21.71 C35.38 18.17, 38.05 16.74, 40.63 13.19 M34.61 21.42 C36.51 19.49, 38.29 17.73, 41.82 12.94 M-0.04 19.86 C-0.04 19.86, -0.04 19.86, -0.04 19.86 M-0.04 19.86 C-0.04 19.86, -0.04 19.86, -0.04 19.86 M7.04 20.9 C3.64 17.51, 2.46 15.44, 0.97 14.78 M6.07 20.15 C5.09 18.85, 3.52 18.07, 0.6 14.76 M10.77 21.23 C8.13 16.65, 5.39 11.89, -1.16 9.06 M12.24 19.8 C8.06 15.48, 3.13 11.94, 0.09 9.86 M20 18.28 C15.03 16.38, 9.49 11.1, 0.37 3.99 M19.19 19.89 C13.64 16.46, 8.29 12.09, -0.03 3.47 M25.97 17.66 C16.28 11.96, 8.4 5.91, 0.05 -0.69 M23.64 19.09 C17.93 15.62, 12.74 10.55, -0.18 -0.5 M31.66 21.68 C22.17 14.25, 15.92 8, 8.96 -0.53 M29.83 19.09 C23.15 12.03, 13.4 4.34, 6.14 -0.63 M34.87 20.16 C30.47 13.52, 22.88 9.89, 11.29 0.83 M37.51 20.9 C27.67 12.22, 19.78 3.73, 12.99 -1.09 M42.63 19.59 C34.3 11.32, 25.78 4.84, 19.13 -1.95 M40.89 18.41 C35.46 13.6, 29.96 9.88, 19.22 -0.18 M42.54 12.59 C36.96 8.23, 35.63 6.87, 23.01 -1.57 M40.14 12.68 C35.47 8.7, 32.08 3.95, 25.21 -1.21 M40.44 8.28 C37.42 5.46, 36.79 5.03, 31.55 -0.76 M41.03 7.57 C37.72 4.93, 34.93 2.66, 31.04 -0.49 M40.17 1.98 C39.79 1.77, 39.18 0.88, 37.46 -0.54 M40.6 2.02 C39.6 1.32, 38.38 0.12, 37.43 -0.44" stroke="#fab005" stroke-width="0.5" fill="none"></path><path d="M1.95 -1.77 C11.53 -0.83, 26.41 -1.71, 38.35 1.72 M0.21 -0.09 C15.22 0.6, 28.48 0.24, 38.6 -0.23 M38.88 -0.44 C41.31 6.13, 37.54 10.05, 40.78 20.32 M38.66 -0.72 C38.9 6.54, 40.06 11.56, 40.09 20.11 M41.1 21.65 C29.27 20.64, 19.44 18.66, -1.16 20.07 M38.42 20.69 C23.09 19.53, 9.3 20.58, 0.76 20.47 M-0.78 20.78 C0.6 12, 0.49 7.79, -1.71 0.53 M-0.04 20.3 C0.65 14.51, -0.45 7.33, -0.27 0.96" stroke="#000000" stroke-width="1" fill="none"></path></g><g stroke-linecap="round" transform="translate(685.3064254084687 372.1163724389193) rotate(0 35.408220894427814 54.15214451096949)"><path d="M0.54 -0.07 L70.11 0.78 L69.54 107.77 L-1.52 109.46" stroke="none" stroke-width="0" fill="#ced4da"></path><path d="M-1.77 -1.02 C18.04 0.62, 36.08 -1.58, 72.54 1.4 M-0.09 0.69 C23.24 -0.72, 45.57 -0.79, 70.58 -0.26 M70.37 1.97 C70.83 36.29, 69.27 77.76, 71.25 108.41 M70.09 -0.45 C71.45 39.05, 70.39 77.53, 71.03 107.64 M72.57 107.49 C55.66 107.46, 37.81 107.8, 0.18 110.17 M71.62 107.58 C54.8 108.64, 40.11 108.49, 0.58 108.27 M0.9 108.89 C-1.26 77.24, 0.44 43.5, 0.53 -0.06 M0.41 108.78 C-0.28 85.03, -1.57 62.74, 0.97 0.15" stroke="#000000" stroke-width="1" fill="none"></path></g><g stroke-linecap="round" transform="translate(693.4141294985603 380.3735537893162) rotate(0 27.90058176757168 41.41639447687885)"><path d="M-0.07 -0.71 L56.58 -1.28 L55.27 81.31 L1.15 83.82" stroke="none" stroke-width="0" fill="#fff"></path><path d="M-1.02 -0.86 C17.67 -1.24, 31.82 2.21, 57.2 0.41 M0.69 0.55 C15.47 0.24, 31.43 -0.19, 55.55 0.52 M57.77 0.68 C53.83 18.85, 57.2 39.89, 55.91 83.91 M55.35 0.47 C56.03 25.48, 56.17 52.33, 55.13 82.07 M54.99 83.54 C37.01 82.06, 20.05 83.5, 1.86 81.28 M55.08 82.56 C41.34 84.07, 25.82 83.86, -0.03 82.75 M0.59 80.84 C0.8 63.31, -1.39 44.9, -0.06 -1.82 M0.47 83.37 C-0.6 50.98, -0.25 21.6, 0.15 0.27" stroke="#000000" stroke-width="1" fill="none"></path></g><g stroke-linecap="round" transform="translate(715.6007992629123 466.751236911901) rotate(0 5.713912003219434 5.713912003219434)"><path d="M7.87 0.35 C8.73 0.56, 9.46 1.53, 10.1 2.68 C10.75 3.83, 12.06 5.95, 11.74 7.25 C11.42 8.55, 9.27 9.93, 8.2 10.48 C7.12 11.04, 6.33 10.66, 5.32 10.56 C4.3 10.46, 3.15 10.45, 2.12 9.89 C1.09 9.34, -0.65 8.35, -0.86 7.21 C-1.07 6.07, -0.03 4.12, 0.86 3.05 C1.75 1.98, 3.23 1.27, 4.47 0.8 C5.71 0.33, 7.48 -0.09, 8.31 0.25 C9.15 0.58, 9.41 2.57, 9.49 2.82 M4.66 -0.4 C5.72 -0.45, 6.94 1.06, 8.17 2.14 C9.4 3.22, 11.76 5.12, 12.06 6.07 C12.37 7.03, 10.78 7.3, 10 7.88 C9.21 8.46, 8.55 8.83, 7.37 9.56 C6.19 10.29, 4.18 12.25, 2.9 12.25 C1.62 12.25, -0.01 10.87, -0.3 9.57 C-0.59 8.27, 0.95 5.82, 1.15 4.44 C1.36 3.06, 0.02 1.87, 0.93 1.3 C1.84 0.73, 5.74 1.11, 6.59 1.04 C7.43 0.98, 6.32 0.97, 5.98 0.92" stroke="none" stroke-width="0" fill="#fff"></path><path d="M8.42 1.01 C9.72 1.37, 10.28 1.71, 10.81 2.63 C11.33 3.54, 11.68 5.18, 11.57 6.5 C11.46 7.82, 11.22 9.71, 10.17 10.56 C9.12 11.41, 6.71 11.72, 5.26 11.62 C3.82 11.51, 2.39 10.64, 1.49 9.93 C0.59 9.22, 0.09 8.53, -0.15 7.34 C-0.38 6.15, -0.51 3.78, 0.09 2.78 C0.68 1.79, 2.05 1.91, 3.43 1.37 C4.8 0.84, 7.57 -0.47, 8.32 -0.44 C9.06 -0.41, 7.96 1.29, 7.9 1.54 M6.15 -0.46 C7.37 0.1, 10.4 2.21, 11.13 3.55 C11.86 4.88, 10.71 6.67, 10.53 7.54 C10.35 8.41, 10.96 8.12, 10.05 8.79 C9.13 9.46, 6.07 11.08, 5.03 11.56 C3.98 12.04, 4.7 12.33, 3.79 11.68 C2.88 11.04, 0.3 9.24, -0.43 7.68 C-1.15 6.12, -1.05 3.48, -0.57 2.31 C-0.08 1.14, 0.94 1.19, 2.47 0.65 C4 0.11, 7.91 -0.7, 8.63 -0.96 C9.36 -1.22, 6.9 -1.02, 6.84 -0.91" stroke="#000000" stroke-width="1" fill="none"></path></g><g stroke-linecap="round" transform="translate(701.6938198985307 390.9177104654564) rotate(0 19.620891367601075 9.944730235592885)"><path d="M0 0 C0 0, 0 0, 0 0 M0 0 C0 0, 0 0, 0 0 M0.13 5.91 C1.55 4.99, 3.98 2.83, 5.61 0.71 M-0.1 6.02 C0.97 5.18, 2.42 4.11, 4.98 0.73 M0.47 12.9 C4.88 6.57, 7.72 2.8, 11.17 -1.16 M0.02 12.78 C4.24 7.48, 8.53 2.46, 10.75 0.42 M-1.12 19.77 C4.34 12.2, 12.56 5.04, 16.14 -0.41 M-0.75 19.26 C6.13 10.83, 12.24 4.07, 15.11 0.53 M0.92 23.69 C9 13.72, 18.43 5.77, 22.57 1.03 M3.1 21.75 C7.74 15.43, 12.98 10.61, 21.52 -0.02 M6.2 20.29 C13.1 14.33, 22.82 4.99, 27.98 0.84 M6.92 21.3 C11.45 17.46, 15.51 12.84, 27.02 0.73 M11.71 20.5 C16.42 17.99, 21.11 9.36, 32.68 0.3 M13.66 21.63 C18.8 14.64, 25.82 5.98, 31.37 0.62 M16.42 23.86 C20.9 18.68, 27.41 11.98, 36.56 2.22 M18.57 21.27 C25.95 13.46, 31.67 5.29, 37.87 0.5 M25.12 20.37 C28.94 16.69, 34.67 8.97, 40.89 2.5 M23.18 22.15 C28.4 16.85, 31.4 11.4, 41.38 0.6 M29.04 20.73 C32.23 17.66, 35.12 13.75, 40.98 8.3 M28.17 22.67 C32.21 18.29, 36.51 12.99, 41.15 7.56 M33.55 21.92 C35.66 19.06, 38.2 16.68, 41.22 14.37 M34.38 22.21 C36.32 19.19, 37.67 17.17, 41.69 13.84 M-0.04 19.86 C-0.04 19.86, -0.04 19.86, -0.04 19.86 M-0.04 19.86 C-0.04 19.86, -0.04 19.86, -0.04 19.86 M7.15 19.55 C4.63 17.91, 0.82 15.54, 0.33 14.28 M5.97 20.21 C4.79 18.37, 2.7 17.16, -0.06 14.56 M13 18.55 C6.17 15.45, 3.52 11.94, -1.17 9.7 M11.95 19.66 C8.36 17.05, 4.26 12.44, 0.34 9.87 M19.35 19.7 C14.48 16.42, 10.14 13.41, 0.86 5.81 M18.49 20.9 C12.78 14.8, 8.06 11.13, -0.23 5.21 M23.52 19.14 C18.71 15.39, 13.13 9.4, 0.81 -1.55 M23.3 19.87 C17.57 14.92, 12.98 9.28, 0.92 -0.14 M31.84 21.83 C23.23 12, 13.23 2.63, 5.8 -1.72 M29.79 18.87 C24.13 15.04, 19.59 9.8, 6.99 -1.47 M36.2 21.63 C28.12 15.39, 23.51 7.59, 11.38 0.46 M37.41 19.19 C28.07 11.94, 19.07 4.79, 13.08 -0.05 M40.96 17.85 C33.07 10.18, 23.83 6.56, 20.19 -0.8 M40.35 18.64 C34.58 13.04, 27.01 6.25, 19.44 0.36 M42.26 12.65 C34.27 8.07, 31.08 6.24, 24.57 -1.88 M41.23 11.82 C36.5 8.53, 30.73 4.05, 24.23 -1.4 M41.32 9.06 C38.12 4.86, 34.27 2.9, 30.68 -0.58 M40.72 7.67 C38.27 5.71, 35.34 3.01, 31.45 -1.37 M40.62 2.12 C39.69 1.42, 39.24 0.59, 37.61 -0.39 M40.58 2.04 C39.69 1.57, 39.15 0.89, 37.34 -0.35" stroke="#fab005" stroke-width="0.5" fill="none"></path><path d="M1.31 -1.73 C7.41 1.89, 18.01 0.58, 38.99 0.42 M-0.57 0.19 C10.79 -0.45, 22.61 0.3, 38.62 -0.18 M37.43 -0.87 C40.97 5.96, 39.54 12.12, 39.53 18.72 M39.95 -0.58 C40 4.74, 38.49 8.29, 39.34 20.81 M37.74 18.62 C22.86 20.21, 10.67 18.48, -0.49 18.25 M40.15 20.68 C25.09 20.36, 9.39 19.7, -0.68 19.5 M0.47 19.6 C-1.77 13.56, -0.12 4.36, 1.5 -0.07 M-0.63 19.14 C-0.37 14.08, 0.05 6.6, -0.03 -0.35" stroke="#000000" stroke-width="1" fill="none"></path></g><g stroke-linecap="round" transform="translate(701.6938198985307 426.47547051041084) rotate(0 19.620891367601075 9.944730235592885)"><path d="M0 0 C0 0, 0 0, 0 0 M0 0 C0 0, 0 0, 0 0 M-0.75 6.31 C1.66 5.48, 2.84 4.23, 5.33 -0.26 M-0.64 6.51 C1.85 4.49, 4.11 1.8, 5.36 0.65 M0.99 12.85 C2.02 8.48, 5.61 5.95, 9.5 1.18 M0.87 12.25 C3.62 8.57, 6.64 4.12, 11.09 0.61 M1.2 17 C6 13.04, 11.18 6.49, 14.88 2.16 M0.69 18.6 C4.68 12.49, 10.35 5.74, 15.82 1.14 M4.11 21.39 C8.69 16.56, 15.3 8.97, 22.36 -0.6 M2.16 21.94 C5.95 17.1, 11.21 12.49, 21.31 0.85 M5.34 20.59 C13.52 16.58, 18.28 11.27, 26.79 -1.14 M6.34 22.1 C13.45 15.01, 19.79 9.29, 26.69 -0.15 M11.59 20.28 C18.64 15.66, 19.56 13.57, 32.29 1.14 M12.72 20.88 C19.78 13.81, 25.17 7.01, 32.62 -0.65 M19.57 20.37 C24.18 17.29, 27.24 11.85, 38.84 1.67 M16.97 23.13 C22.51 15.67, 27.66 11.03, 37.12 -0.02 M22.11 22.55 C30.92 15.33, 35.68 5.33, 42.34 0.09 M23.9 22.57 C29.59 14.36, 35.1 7.79, 40.44 1.27 M27.1 22.24 C31.83 17.26, 35.75 13.66, 41.47 8.09 M29.04 21.86 C32.75 18.19, 35.53 14.23, 40.74 7.77 M34.33 21 C35.48 19.69, 37.1 18.15, 42.3 12.83 M34.62 22.19 C36.38 18.59, 39.13 15.76, 41.77 13.76 M-0.04 19.86 C-0.04 19.86, -0.04 19.86, -0.04 19.86 M-0.04 19.86 C-0.04 19.86, -0.04 19.86, -0.04 19.86 M5.8 20.76 C4.78 18.08, 2.97 17.53, -0.26 14.93 M6.46 20.4 C4.56 18.62, 3.26 16.69, 0.01 15.25 M10.83 18.64 C8.22 17.69, 5.25 12.45, 0.4 9.39 M11.94 19.89 C8.34 15.74, 2.63 12.56, 0.57 8.54 M18.11 20.07 C11.33 13.81, 4.91 8.86, 1.86 4.04 M19.32 19.67 C11.44 14.97, 6.3 8.96, 1.25 3.28 M23.6 19 C17.4 12.22, 8.76 7.88, -0.16 -1.76 M24.32 18.76 C19.29 15.61, 13.86 11.23, 1.26 0.17 M32.42 21.76 C23.66 15.34, 15.64 7.27, 5.81 -2.01 M29.46 18.95 C21.44 11.71, 11.81 4.08, 6.06 -0.46 M38.36 18.71 C31.13 14.81, 22.18 5.69, 14.03 0.69 M35.92 20.42 C30.22 15.1, 24.59 9.47, 13.52 -0.29 M40.42 18.45 C32.08 10.44, 27.65 6.24, 18.91 -0.62 M41.21 18.54 C35.45 12.12, 28.31 8.08, 20.07 -0.71 M40.47 11.04 C35.66 8.7, 33.36 4.94, 23.86 -1.17 M39.63 13.24 C36.4 8.72, 31.95 5.41, 24.35 -0.62 M42.22 8.19 C38.97 5.98, 37.93 3.92, 31.3 -1.17 M40.83 7.69 C38.76 5.19, 35.84 3.74, 30.51 -1 M40.53 2.07 C39.6 1.65, 38.58 0.69, 37.63 -0.71 M40.45 2.03 C39.45 1.26, 38.28 -0.01, 37.67 -0.4" stroke="#fab005" stroke-width="0.5" fill="none"></path><path d="M-1.73 -0.89 C11.49 1.15, 19.94 -0.51, 39.66 -0.17 M0.19 -0.64 C14.25 -0.03, 29.48 -0.39, 39.06 -0.22 M38.37 1.54 C39.74 8.03, 40.38 16.15, 38.07 18.44 M38.66 0.85 C39.55 4.41, 38.58 10.25, 40.16 20.76 M37.98 18.73 C29.24 21.46, 17.33 19.1, -1.64 21.49 M40.03 20.65 C30.89 20.22, 21.29 19.57, -0.39 20.34 M-0.29 18.18 C0.72 13.28, -1.61 8.29, -0.07 0.81 M-0.75 19.61 C0.86 13.13, 0.16 6.04, -0.35 0.39" stroke="#000000" stroke-width="1" fill="none"></path></g><g stroke-linecap="round" transform="translate(753.3064254084687 123.11637243891931) rotate(0 35.408220894427814 54.15214451096952)"><path d="M-0.53 -1.52 L71.97 0.99 L72.75 107.35 L-0.8 107.78" stroke="none" stroke-width="0" fill="#ced4da"></path><path d="M-0.89 1.72 C19.6 1.02, 36.14 1.03, 70.64 1.38 M-0.64 -0.23 C24.86 0.38, 49.61 -0.31, 70.59 0.99 M72.36 0.44 C69.94 37.25, 70.12 71.17, 69.36 107.41 M71.67 0.22 C70.92 36.87, 71.69 76.19, 71.69 107.9 M69.65 108.48 C48.92 106.3, 22.81 106.22, 1.6 106.86 M71.58 108.88 C51.44 108.77, 31.44 108.47, 0.45 108.6 M-1.72 108.83 C-0.32 84.78, 1.25 64.82, 0.82 0.95 M-0.28 109.27 C0.84 70.3, 0.65 31.39, 0.39 -0.64" stroke="#000000" stroke-width="1" fill="none"></path></g><g stroke-linecap="round" transform="translate(761.4141294985603 131.3735537893162) rotate(0 27.90058176757168 41.41639447687882)"><path d="M-1.52 1.15 L56.79 1.93 L54.85 82.03 L-0.52 80.85" stroke="none" stroke-width="0" fill="#fff"></path><path d="M1.72 1.4 C20.81 0, 41.23 0.08, 57.18 1.09 M-0.23 -0.26 C14.08 -0.26, 26.94 0.14, 56.79 0.34 M56.24 0.1 C56.52 17.61, 54.26 33.18, 54.91 83.78 M56.02 -0.67 C54.56 30.86, 56.25 62.4, 55.39 83.19 M55.98 84.69 C41.68 82.02, 29.04 84.11, -1.45 82.3 M56.38 82.8 C33.89 82.58, 11.76 83.71, 0.29 81.84 M0.53 82.77 C-1.7 57.54, 0.05 30.04, 0.95 1.07 M0.97 82.98 C0.89 63.19, 0.27 44.01, -0.64 -0.27" stroke="#000000" stroke-width="1" fill="none"></path></g><g stroke-linecap="round" transform="translate(783.6007992629123 217.751236911901) rotate(0 5.713912003219434 5.713912003219434)"><path d="M4.11 -0.67 C5.28 -1.23, 7 -0.42, 7.96 0.22 C8.91 0.86, 9.27 2.23, 9.83 3.17 C10.39 4.11, 11.26 4.7, 11.3 5.85 C11.35 7.01, 10.97 9.08, 10.1 10.09 C9.23 11.1, 7.33 12.01, 6.07 11.9 C4.8 11.79, 3.66 10.34, 2.53 9.42 C1.41 8.5, -0.55 7.45, -0.68 6.37 C-0.81 5.3, 0.85 4.01, 1.76 2.96 C2.67 1.91, 4.27 0.5, 4.79 0.09 C5.31 -0.31, 5.04 0.47, 4.9 0.52 M5.04 -0.31 C5.85 -0.99, 6.22 -0.45, 6.9 -0.11 C7.57 0.24, 8.15 0.83, 9.08 1.75 C10.02 2.67, 12.27 3.87, 12.5 5.42 C12.73 6.97, 11.6 10.23, 10.44 11.06 C9.27 11.88, 6.91 10.37, 5.52 10.39 C4.12 10.41, 2.8 11.7, 2.08 11.17 C1.35 10.65, 1.26 8.78, 1.16 7.24 C1.06 5.7, 1.05 2.96, 1.48 1.94 C1.92 0.93, 3.55 1.42, 3.75 1.15 C3.96 0.88, 2.49 0.22, 2.73 0.34" stroke="none" stroke-width="0" fill="#fff"></path><path d="M6.21 0.72 C7.49 0.64, 9.46 0.51, 10.36 1.16 C11.26 1.82, 11.64 3.39, 11.6 4.66 C11.56 5.93, 10.77 7.81, 10.11 8.8 C9.45 9.8, 8.81 10.33, 7.63 10.64 C6.45 10.94, 4.07 11.01, 3.04 10.63 C2.02 10.26, 2.11 9.54, 1.49 8.39 C0.86 7.24, -0.99 4.91, -0.69 3.72 C-0.39 2.52, 1.84 1.66, 3.28 1.2 C4.72 0.75, 6.93 1.04, 7.95 0.97 C8.97 0.9, 9.55 0.85, 9.39 0.78 M8.34 0.49 C9.14 0.64, 8.77 0.02, 9.31 1.18 C9.85 2.35, 11.26 6.15, 11.57 7.46 C11.88 8.77, 11.95 8.58, 11.17 9.04 C10.39 9.51, 8.48 10.18, 6.88 10.27 C5.29 10.36, 2.69 9.86, 1.6 9.6 C0.52 9.34, 0.75 9.81, 0.37 8.72 C-0.01 7.63, -0.95 4.21, -0.69 3.06 C-0.42 1.9, 0.83 2.35, 1.94 1.8 C3.05 1.25, 4.9 -0.18, 5.97 -0.24 C7.05 -0.3, 8.05 1.15, 8.4 1.45" stroke="#000000" stroke-width="1" fill="none"></path></g><g stroke-linecap="round" transform="translate(769.6938198985307 141.91771046545642) rotate(0 19.620891367601075 9.944730235592885)"><path d="M0 0 C0 0, 0 0, 0 0 M0 0 C0 0, 0 0, 0 0 M0.44 7.02 C1.54 4, 3.34 2.39, 5.32 -0.4 M0.11 6.39 C1.82 4.65, 3.06 2.33, 5.07 0.58 M-0.15 12.58 C2.76 9.04, 8.12 4.25, 10.4 1.45 M-0.32 12.16 C4 8.68, 7.33 3.32, 10.23 0.5 M0.1 18.96 C2.69 16.08, 7.8 11.82, 14.38 1.96 M-0.17 17.93 C5.13 13.5, 10.17 6.81, 14.96 1.26 M2.84 23.13 C8.62 15.01, 11.12 7.64, 23 -0.21 M2.82 22.08 C8.35 15.87, 14.15 7.15, 20.75 -1.01 M7 23.91 C11.9 15.86, 15.82 13.24, 25.65 -1.47 M7.95 22.95 C13.14 15.42, 17.33 9.12, 25.67 -0.35 M11.56 22.57 C17.35 18.26, 21.68 11.64, 33.49 -0.4 M12.87 21.26 C17.41 16.81, 19.98 12.07, 31.17 0.76 M18.3 21.82 C23.64 18.93, 25.17 10.9, 38.31 -1.5 M17.04 23.13 C25.85 13.2, 34.11 4.89, 37.69 -0.43 M21.84 21.43 C30.6 13.38, 36.46 6.78, 40.57 2.18 M22.67 21.92 C29.53 13.92, 37.01 7.17, 41.5 0.64 M28.54 22.14 C32.85 18.07, 35.83 12.09, 40.33 8.88 M28.37 22.31 C31.59 18.17, 34.34 13.43, 40.45 7.94 M34.01 21.59 C36.8 19.2, 38.39 17.84, 41.86 14.4 M33.69 22.06 C37.42 18.84, 40.15 15.8, 41.64 13.63 M-0.04 19.86 C-0.04 19.86, -0.04 19.86, -0.04 19.86 M-0.04 19.86 C-0.04 19.86, -0.04 19.86, -0.04 19.86 M6 20.13 C3.48 18.13, 1.65 15.67, -0.46 15.06 M6.66 19.73 C3.83 18.56, 1.9 16.32, 0.57 14.58 M12.47 18.63 C9.68 17.52, 7.37 14.24, -0.18 9.1 M11.28 20.13 C8.69 15.65, 4.77 13.23, 0.31 9.11 M18.52 20.56 C14.48 14.96, 8.08 12.08, 0.47 6.07 M18.53 19.46 C14.63 14.84, 8.71 11.11, 0.03 4.02 M22.25 19.75 C16.91 12.92, 9.55 9.79, -0.85 -0.2 M23.72 19.86 C19.52 16.18, 13.65 11.49, 1.35 0.24 M28.99 18.61 C19.96 10.41, 13.6 2.91, 5.75 -2.45 M29.62 19.8 C24.58 15.56, 20.76 10.91, 6.73 0.27 M37.09 18.8 C32.44 17.01, 24.88 10.45, 13.82 -2.73 M37.43 20.51 C29.74 13.88, 21.42 6.04, 12.68 -1.16 M42.86 19.51 C34.31 12.51, 27.41 5.78, 17.85 -0.15 M40.34 18.76 C35.02 12.17, 27.02 5.47, 19.93 -0.67 M42.21 12.6 C36.36 9.63, 32.88 6.59, 26.03 -2.91 M39.93 12.26 C34.71 8.26, 28.59 2.86, 25.02 -0.02 M41.86 7.33 C37.86 4.52, 33.82 1.45, 30.68 -0.97 M40.78 8.1 C37.48 5.02, 35.22 3.23, 31.25 -0.77 M40.35 2.21 C39.79 1.18, 39.13 0.95, 37.6 -0.68 M40.56 1.95 C39.93 1.58, 39.09 0.88, 37.35 -0.56" stroke="#fab005" stroke-width="0.5" fill="none"></path><path d="M0.41 -0.25 C10.44 -0.45, 21.43 0.82, 38.1 0.38 M0.52 -0.62 C9.07 -0.12, 19.5 0.44, 38.33 -0.44 M40.32 0.29 C38.11 6.06, 38.4 15.95, 40.66 18.73 M38.49 0.1 C40.21 8.54, 38.88 15.68, 38.5 19.26 M37.69 19.4 C28.11 21.85, 18.81 19.72, 1.82 21.46 M39.15 19.21 C24.09 20.33, 10.01 18.88, 0.24 19.74 M-1.81 21.39 C-0.13 16.44, 0.89 12.44, -1.26 -1.5 M0.27 19.86 C-0.55 14.86, -0.83 8.79, -0.76 0.57" stroke="#000000" stroke-width="1" fill="none"></path></g><g stroke-linecap="round" transform="translate(769.6938198985307 177.47547051041084) rotate(0 19.620891367601075 9.944730235592885)"><path d="M0 0 C0 0, 0 0, 0 0 M0 0 C0 0, 0 0, 0 0 M0.36 6.74 C1.13 4.62, 3.31 1.96, 4.23 0.59 M-0.27 6.77 C1.66 4.29, 3.02 2.53, 5.2 0.56 M0.67 10.91 C3.86 9.74, 5.8 6.09, 12.11 0.38 M0.26 12.5 C3.88 8.81, 5.64 4.37, 11.16 -0.61 M0.39 17.7 C6.75 13.32, 11.74 5.41, 17.26 0.66 M-0.63 18.64 C4.79 13.96, 7.96 8.3, 16.55 0.11 M3.55 22.92 C7.42 13.26, 12.06 9.9, 21.12 0.17 M2.49 21.87 C7.73 16.31, 10.45 10.59, 20.32 -0.86 M8.96 22.72 C11.94 15.3, 20.38 7.27, 24.49 0.13 M8 22.62 C13.24 13.78, 19.71 6.78, 25.61 -0.46 M13.65 22.18 C21.65 13.89, 27.31 6.57, 31.59 -1.92 M12.34 22.51 C19.6 12.92, 26.55 4.71, 32.75 -0.99 M17.53 24.1 C26.66 13.06, 30.66 6.51, 35.12 2.23 M18.84 22.38 C21.91 18.31, 26.59 13.3, 36.19 0.66 M23.18 22.88 C27.81 16.22, 33.91 7.98, 42.02 3.01 M23.67 20.98 C28.47 16.08, 34.52 10.67, 40.48 1.44 M28.51 22.64 C32.47 17.62, 34.5 13.16, 42.06 7.27 M28.68 21.9 C33.05 15.99, 36.82 11.08, 41.12 7.16 M34 22.68 C35.58 20.25, 38.2 17.6, 42.33 14.37 M34.47 22.15 C36.01 20.36, 37.73 18.51, 41.56 13.81 M-0.04 19.86 C-0.04 19.86, -0.04 19.86, -0.04 19.86 M-0.04 19.86 C-0.04 19.86, -0.04 19.86, -0.04 19.86 M6.37 19.53 C4.73 18.45, 2.52 16.27, 0.51 15.43 M5.98 19.81 C5.08 18.72, 3.13 17.54, 0.03 14.6 M10.91 20.19 C8.6 17.68, 4.25 13.56, -0.2 9.56 M12.41 20.36 C6.76 16.23, 3.13 12.03, -0.19 9.26 M18.97 21.56 C13.02 16.15, 9.72 11.12, 2.12 3.6 M17.88 20.95 C13.37 16.41, 9.83 12.74, 0.06 3.94 M24.2 18.79 C16.09 11.38, 11.38 5.57, 1.2 -2.4 M24.31 20.2 C17.29 12.75, 9.42 7.02, 1.64 0.21 M29.2 18.62 C21.84 15.28, 15.41 6.27, 5.08 -2.29 M30.39 18.87 C23.83 13.96, 16.77 7.73, 7.8 -1.19 M35.53 21.45 C28.96 11.38, 17.92 5.09, 10.84 -0.28 M37.23 20.94 C30.6 14.89, 22.96 8.53, 12.41 -0.86 M42.07 18.23 C35.99 13.71, 29.9 8.48, 19.55 -0.36 M41.32 19.39 C33.52 11.55, 25.24 6.01, 19.03 -1.48 M40.42 11.89 C36.12 8.19, 31.72 6.69, 22.84 -0.05 M40.07 12.38 C36.61 7.81, 31.57 5.22, 25.72 -0.69 M40.49 7.95 C37.59 4.7, 34.42 2.29, 30.91 -0.92 M41.26 7.16 C37.4 4.79, 34.71 2.07, 31.11 -0.85 M40.63 2.23 C39.44 1.66, 39.08 0.68, 37.34 -0.69 M40.36 2.28 C39.64 1.34, 38.6 0.25, 37.45 -0.59" stroke="#fab005" stroke-width="0.5" fill="none"></path><path d="M-0.25 0.42 C14.97 1.3, 31.38 -1.22, 39.62 -1.28 M-0.62 -0.18 C10.63 0.78, 22.05 -1.11, 38.81 0.77 M39.53 -1.17 C37.81 5.51, 40.2 14.22, 38.08 21.59 M39.34 0.92 C39.98 5.99, 39.46 12.05, 38.61 19.31 M38.75 18.25 C28.72 18.14, 14.45 21.41, 1.57 21.41 M38.56 19.5 C25.66 20.15, 10.18 20.09, -0.15 19.03 M1.5 19.82 C0.82 14.34, 1.07 5.64, -1.5 -0.55 M-0.03 19.54 C0.36 11.36, -0.29 3.34, 0.57 0.49" stroke="#000000" stroke-width="1" fill="none"></path></g><g stroke-linecap="round"><g transform="translate(187.71464630289654 290.2685169498888) rotate(0 163.9380964663019 -47.49685279266444)"><path d="M-0.23 -0.44 C54.91 -16.13, 274.93 -77.48, 329.69 -92.97 M-1.82 -1.72 C53.34 -17.21, 274.26 -78.93, 329.11 -94.55" stroke="#000000" stroke-width="1" fill="none"></path></g><g transform="translate(187.71464630289654 290.2685169498888) rotate(0 163.9380964663019 -47.49685279266444)"><path d="M23.4 -16.78 C21.11 -15.54, 15.49 -10.38, 0.92 0.28 M24.19 -17.08 C15.94 -12.4, 7.53 -5.36, -0.15 -0.68" stroke="#000000" stroke-width="1" fill="none"></path></g><g transform="translate(187.71464630289654 290.2685169498888) rotate(0 163.9380964663019 -47.49685279266444)"><path d="M28.94 2.98 C25.35 0.23, 18.61 1.41, 0.92 0.28 M29.73 2.68 C19.5 0.54, 9.18 0.77, -0.15 -0.68" stroke="#000000" stroke-width="1" fill="none"></path></g><g transform="translate(187.71464630289654 290.2685169498888) rotate(0 163.9380964663019 -47.49685279266444)"><path d="M304.02 -75.88 C311.21 -81.59, 315.4 -83.48, 330.26 -93.83 M304.8 -76.17 C313.24 -83.58, 321.64 -88.61, 329.19 -94.79" stroke="#000000" stroke-width="1" fill="none"></path></g><g transform="translate(187.71464630289654 290.2685169498888) rotate(0 163.9380964663019 -47.49685279266444)"><path d="M298.45 -95.63 C306.95 -97.36, 312.26 -95.27, 330.26 -93.83 M299.24 -95.93 C309.67 -96.52, 319.98 -94.74, 329.19 -94.79" stroke="#000000" stroke-width="1" fill="none"></path></g></g><mask></mask><g stroke-linecap="round"><g transform="translate(192.71464630289654 317.2685169498888) rotate(0 149.62753423744346 74.9551756337145)"><path d="M-0.12 -0.06 C50.16 25.04, 250.83 126.06, 300.9 151.05 M-1.65 -1.14 C48.55 23.6, 249.77 124.09, 299.9 149.47" stroke="#000000" stroke-width="1" fill="none"></path></g><g transform="translate(192.71464630289654 317.2685169498888) rotate(0 149.62753423744346 74.9551756337145)"><path d="M29.58 3.26 C24.5 1.42, 15.67 -0.08, -0.1 -0.1 M28.81 3.92 C22.23 2.69, 14.03 2.25, -0.29 -1.05" stroke="#000000" stroke-width="1" fill="none"></path></g><g transform="translate(192.71464630289654 317.2685169498888) rotate(0 149.62753423744346 74.9551756337145)"><path d="M20.37 21.6 C17.35 15.52, 10.65 9.77, -0.1 -0.1 M19.6 22.26 C15.45 16.4, 9.6 11.29, -0.29 -1.05" stroke="#000000" stroke-width="1" fill="none"></path></g><g transform="translate(192.71464630289654 317.2685169498888) rotate(0 149.62753423744346 74.9551756337145)"><path d="M270.01 145.83 C278.76 145.67, 283.73 145.77, 299.92 149.43 M269.24 146.49 C277.81 147.35, 284.8 148.68, 299.74 148.48" stroke="#000000" stroke-width="1" fill="none"></path></g><g transform="translate(192.71464630289654 317.2685169498888) rotate(0 149.62753423744346 74.9551756337145)"><path d="M279.22 127.49 C285.91 131.57, 288.75 135.92, 299.92 149.43 M278.45 128.15 C284.59 133.63, 289.23 139.64, 299.74 148.48" stroke="#000000" stroke-width="1" fill="none"></path></g></g><mask></mask><g stroke-linecap="round"><g transform="translate(540.7146463028965 411.2685169498888) rotate(0 5.6036074059596785 -65.59192095473409)"><path d="M-0.06 0.22 C1.98 -21.52, 10.78 -109.59, 12.76 -131.4 M-1.55 -0.71 C0.26 -22.2, 9.08 -108.06, 11.68 -130.08" stroke="#000000" stroke-width="1" fill="none"></path></g><g transform="translate(540.7146463028965 411.2685169498888) rotate(0 5.6036074059596785 -65.59192095473409)"><path d="M-7.16 -29.24 C-5.86 -20.84, -2.06 -9.89, 1.21 -0.07 M-6.54 -28.44 C-4.43 -18.34, -2.61 -8.54, -0.1 1.13" stroke="#000000" stroke-width="1" fill="none"></path></g><g transform="translate(540.7146463028965 411.2685169498888) rotate(0 5.6036074059596785 -65.59192095473409)"><path d="M13.27 -27.24 C7.56 -19.54, 4.35 -9.28, 1.21 -0.07 M13.88 -26.44 C8.94 -17.06, 3.69 -7.96, -0.1 1.13" stroke="#000000" stroke-width="1" fill="none"></path></g><g transform="translate(540.7146463028965 411.2685169498888) rotate(0 5.6036074059596785 -65.59192095473409)"><path d="M19.19 -101.35 C15.93 -112.93, 14.71 -121.97, 12.95 -130.37 M19.81 -100.55 C17.32 -110.61, 14.09 -120.97, 11.64 -129.17" stroke="#000000" stroke-width="1" fill="none"></path></g><g transform="translate(540.7146463028965 411.2685169498888) rotate(0 5.6036074059596785 -65.59192095473409)"><path d="M-1.21 -103.57 C2.52 -114.38, 8.31 -122.66, 12.95 -130.37 M-0.59 -102.77 C3.97 -112.04, 7.8 -121.62, 11.64 -129.17" stroke="#000000" stroke-width="1" fill="none"></path></g></g><mask></mask><g stroke-linecap="round"><g transform="translate(747.7146463028965 189.2685169498888) rotate(0 -69.92371679426174 8.436624193051813)"><path d="M-1.01 -0.35 C-24.33 2.6, -116.87 14.23, -140.06 16.95 M0.66 -1.59 C-22.73 1.63, -117 15.41, -140.51 18.46" stroke="#000000" stroke-width="1" fill="none"></path></g><g transform="translate(747.7146463028965 189.2685169498888) rotate(0 -69.92371679426174 8.436624193051813)"><path d="M-28.3 14.9 C-19.95 11.07, -13.85 6.88, -0.6 1.46 M-28.07 12.44 C-19.78 8.89, -11.22 5.52, -1.46 0.16" stroke="#000000" stroke-width="1" fill="none"></path></g><g transform="translate(747.7146463028965 189.2685169498888) rotate(0 -69.92371679426174 8.436624193051813)"><path d="M-30.85 -5.46 C-21.88 -3.35, -15.05 -1.62, -0.6 1.46 M-30.62 -7.92 C-21.55 -5.3, -12.23 -2.51, -1.46 0.16" stroke="#000000" stroke-width="1" fill="none"></path></g><g transform="translate(747.7146463028965 189.2685169498888) rotate(0 -69.92371679426174 8.436624193051813)"><path d="M-114.59 5.99 C-121.88 9.77, -131.26 13.64, -140.1 20.27 M-114.36 3.53 C-122.15 7.83, -129.67 12.84, -140.96 18.97" stroke="#000000" stroke-width="1" fill="none"></path></g><g transform="translate(747.7146463028965 189.2685169498888) rotate(0 -69.92371679426174 8.436624193051813)"><path d="M-111.76 26.31 C-119.75 24.16, -129.95 22.12, -140.1 20.27 M-111.53 23.85 C-120.18 21.99, -128.55 20.86, -140.96 18.97" stroke="#000000" stroke-width="1" fill="none"></path></g></g><mask></mask><g stroke-linecap="round"><g transform="translate(602.7146463028965 270.2685169498888) rotate(0 38.949341489314065 53.27562143132093)"><path d="M-0.24 -0.61 C12.87 17.42, 66.26 89.57, 79.72 107.16 M-1.82 1.69 C11.01 19.49, 64.98 88.32, 78.62 105.65" stroke="#000000" stroke-width="1" fill="none"></path></g><g transform="translate(602.7146463028965 270.2685169498888) rotate(0 38.949341489314065 53.27562143132093)"><path d="M23.76 15.49 C17.05 10.3, 3.5 4.75, -0.73 -1.59 M24.38 16.83 C16.6 10.29, 7.05 3.48, 0.36 0.15" stroke="#000000" stroke-width="1" fill="none"></path></g><g transform="translate(602.7146463028965 270.2685169498888) rotate(0 38.949341489314065 53.27562143132093)"><path d="M7.25 27.69 C7.11 17.76, 0.03 7.43, -0.73 -1.59 M7.87 29.02 C5.82 18.39, 1.95 7.38, 0.36 0.15" stroke="#000000" stroke-width="1" fill="none"></path></g><g transform="translate(602.7146463028965 270.2685169498888) rotate(0 38.949341489314065 53.27562143132093)"><path d="M52.14 89.33 C64.93 96.93, 71.15 104.07, 78.13 104.66 M52.76 90.66 C62.24 95.59, 70.06 99.93, 79.21 106.4" stroke="#000000" stroke-width="1" fill="none"></path></g><g transform="translate(602.7146463028965 270.2685169498888) rotate(0 38.949341489314065 53.27562143132093)"><path d="M68.28 76.66 C74.65 89.19, 74.55 101.3, 78.13 104.66 M68.9 77.99 C72.78 87.18, 75.05 95.89, 79.21 106.4" stroke="#000000" stroke-width="1" fill="none"></path></g></g><mask></mask><g stroke-linecap="round"><g transform="translate(583.7146463028965 442.2685169498888) rotate(0 44.156556003540686 -11.288525873045387)"><path d="M-0.52 -0.8 C14.33 -4.93, 73.93 -19.97, 88.83 -23.97 M1.41 1.39 C16.11 -2.6, 73.35 -18.2, 87.8 -22.41" stroke="#000000" stroke-width="1" fill="none"></path></g><g transform="translate(583.7146463028965 442.2685169498888) rotate(0 44.156556003540686 -11.288525873045387)"><path d="M22.86 -18.09 C17.55 -13.36, 9.37 -8.84, 1.02 -1.53 M24.1 -18.15 C16.68 -12.88, 6.55 -7.25, 0.29 -1.09" stroke="#000000" stroke-width="1" fill="none"></path></g><g transform="translate(583.7146463028965 442.2685169498888) rotate(0 44.156556003540686 -11.288525873045387)"><path d="M28.01 1.78 C21.14 1, 11.55 0.05, 1.02 -1.53 M29.25 1.71 C19.95 0.07, 8.04 -1.17, 0.29 -1.09" stroke="#000000" stroke-width="1" fill="none"></path></g><g transform="translate(583.7146463028965 442.2685169498888) rotate(0 44.156556003540686 -11.288525873045387)"><path d="M62.09 -5.2 C70.08 -9.77, 75.45 -14.77, 89.33 -23.14 M63.33 -5.26 C72.72 -11.47, 79.56 -17.78, 88.61 -22.7" stroke="#000000" stroke-width="1" fill="none"></path></g><g transform="translate(583.7146463028965 442.2685169498888) rotate(0 44.156556003540686 -11.288525873045387)"><path d="M56.55 -24.95 C66.2 -24.06, 73.09 -23.6, 89.33 -23.14 M57.79 -25.02 C69.18 -24.35, 77.95 -23.82, 88.61 -22.7" stroke="#000000" stroke-width="1" fill="none"></path></g></g><mask></mask><g transform="translate(158.71464630289654 85.7685169498888) rotate(339.8636965717519 36 10.5)"><text x="0" y="15" font-family="Virgil, Segoe UI Emoji" font-size="16px" fill="#000000" text-anchor="start" style="white-space: pre;" direction="ltr">Catalogo</text></g><g transform="translate(820.7146463028965 303.2685169498888) rotate(0 89 36)"><text x="89" y="26" font-family="Virgil, Segoe UI Emoji" font-size="28px" fill="#000000" text-anchor="middle" style="white-space: pre;" direction="ltr">Rede</text><text x="89" y="62" font-family="Virgil, Segoe UI Emoji" font-size="28px" fill="#000000" text-anchor="middle" style="white-space: pre;" direction="ltr">Peer-to-Peer</text></g></svg>