<svg id="logo-fiap" viewBox="0 0 700 700" style="background-color: black;">
    <g transform="translate(62, 271)">
        <path fill="#ed145b" d="M163.733 2.17h11.35v152.805h-11.35z"></path>
        <path fill="none" d="M163.733 2.17h11.35v152.805h-11.35z"></path>
        <path fill="#ed145b" d="M43.387 75.298h55.408v10.478H43.387z"></path>
        <path fill="none" d="M43.387 75.298h55.408v10.478H43.387z"></path>
        <path fill="#ed145b" d="M1 2.17v152.806h11.35v-69.2h.015V75.297h-.014v-62.65h117.696V2.17"></path>
        <path fill="none" d="M1 2.17v152.806h11.35v-69.2h.015V75.297h-.014v-62.65h117.696V2.17z"></path>
        <path fill="#ed145b"
            d="M516.45 1.58h-90.446v152.806h11.35V97.41h.083V86.935h-.082V12.06h78.223c27.505 0 46.277 12.66 46.277 36.89v.438c0 22.7-19.21 37.546-47.588 37.546H478.47V97.41h35.142c31.87 0 59.595-16.59 59.595-48.678v-.436c0-29.47-23.14-46.715-56.758-46.715">
        </path>
        <path fill="none"
            d="M516.45 1.58h-90.446v152.806h11.35V97.41h.083V86.935h-.082V12.06h78.223c27.505 0 46.277 12.66 46.277 36.89v.438c0 22.7-19.21 37.546-47.588 37.546H478.47V97.41h35.142c31.87 0 59.595-16.59 59.595-48.678v-.436c0-29.47-23.14-46.715-56.758-46.715">
        </path>
        <path fill="#ed145b"
            d="M359.968 86.935L306.978 1h-10.915l-94.387 153.897h11.788l87.84-141.453 45.786 73.49"></path>
        <path fill="none"
            d="M359.968 86.935L306.978 1h-10.915l-94.387 153.897h11.788l87.84-141.453 45.786 73.49z">
        </path>
        <path fill="#ed145b" d="M377.403 115.21h-12.697l24.727 39.686h12.44"></path>
        <path fill="none" d="M377.403 115.21h-12.697l24.727 39.686h12.44z"></path>
    </g>
</svg>